<svg xmlns="http://www.w3.org/2000/svg" viewBox="0 0 900 500" font-family="system-ui, -apple-system, sans-serif">
<rect width="900" height="500" fill="#f8fafc"/>
<text x="450" y="28" text-anchor="middle" font-size="16" font-weight="bold" fill="#334155">Astronomic Metronomic</text>
<text x="450" y="46" text-anchor="middle" font-size="11" fill="#94a3b8">d_max = √(N·P / ρ·c*²) — How far can you whip a bit?</text>
<line x1="80" y1="60" x2="80" y2="420" stroke="#e2e8f0" stroke-width="0.5"/>
<line x1="80" y1="420" x2="860" y2="420" stroke="#e2e8f0" stroke-width="0.5"/>
<text x="80" y="436" text-anchor="middle" font-size="9" fill="#94a3b8">10^0</text>
<text x="72" y="423" text-anchor="end" font-size="9" fill="#94a3b8">10^0</text>
<line x1="142.4" y1="60" x2="142.4" y2="420" stroke="#e2e8f0" stroke-width="0.5"/>
<line x1="80" y1="391.2" x2="860" y2="391.2" stroke="#e2e8f0" stroke-width="0.5"/>
<text x="142.4" y="436" text-anchor="middle" font-size="9" fill="#94a3b8">10^2</text>
<text x="72" y="394.2" text-anchor="end" font-size="9" fill="#94a3b8">10^2</text>
<line x1="204.8" y1="60" x2="204.8" y2="420" stroke="#e2e8f0" stroke-width="0.5"/>
<line x1="80" y1="362.4" x2="860" y2="362.4" stroke="#e2e8f0" stroke-width="0.5"/>
<text x="204.8" y="436" text-anchor="middle" font-size="9" fill="#94a3b8">10^4</text>
<text x="72" y="365.4" text-anchor="end" font-size="9" fill="#94a3b8">10^4</text>
<line x1="267.2" y1="60" x2="267.2" y2="420" stroke="#e2e8f0" stroke-width="0.5"/>
<line x1="80" y1="333.6" x2="860" y2="333.6" stroke="#e2e8f0" stroke-width="0.5"/>
<text x="267.2" y="436" text-anchor="middle" font-size="9" fill="#94a3b8">10^6</text>
<text x="72" y="336.6" text-anchor="end" font-size="9" fill="#94a3b8">10^6</text>
<line x1="329.6" y1="60" x2="329.6" y2="420" stroke="#e2e8f0" stroke-width="0.5"/>
<line x1="80" y1="304.8" x2="860" y2="304.8" stroke="#e2e8f0" stroke-width="0.5"/>
<text x="329.6" y="436" text-anchor="middle" font-size="9" fill="#94a3b8">10^8</text>
<text x="72" y="307.8" text-anchor="end" font-size="9" fill="#94a3b8">10^8</text>
<line x1="392" y1="60" x2="392" y2="420" stroke="#e2e8f0" stroke-width="0.5"/>
<line x1="80" y1="276" x2="860" y2="276" stroke="#e2e8f0" stroke-width="0.5"/>
<text x="392" y="436" text-anchor="middle" font-size="9" fill="#94a3b8">10^10</text>
<text x="72" y="279" text-anchor="end" font-size="9" fill="#94a3b8">10^10</text>
<line x1="454.4" y1="60" x2="454.4" y2="420" stroke="#e2e8f0" stroke-width="0.5"/>
<line x1="80" y1="247.20000000000002" x2="860" y2="247.20000000000002" stroke="#e2e8f0" stroke-width="0.5"/>
<text x="454.4" y="436" text-anchor="middle" font-size="9" fill="#94a3b8">10^12</text>
<text x="72" y="250.20000000000002" text-anchor="end" font-size="9" fill="#94a3b8">10^12</text>
<line x1="516.8000000000001" y1="60" x2="516.8000000000001" y2="420" stroke="#e2e8f0" stroke-width="0.5"/>
<line x1="80" y1="218.39999999999998" x2="860" y2="218.39999999999998" stroke="#e2e8f0" stroke-width="0.5"/>
<text x="516.8000000000001" y="436" text-anchor="middle" font-size="9" fill="#94a3b8">10^14</text>
<text x="72" y="221.39999999999998" text-anchor="end" font-size="9" fill="#94a3b8">10^14</text>
<line x1="579.2" y1="60" x2="579.2" y2="420" stroke="#e2e8f0" stroke-width="0.5"/>
<line x1="80" y1="189.6" x2="860" y2="189.6" stroke="#e2e8f0" stroke-width="0.5"/>
<text x="579.2" y="436" text-anchor="middle" font-size="9" fill="#94a3b8">10^16</text>
<text x="72" y="192.6" text-anchor="end" font-size="9" fill="#94a3b8">10^16</text>
<line x1="641.6" y1="60" x2="641.6" y2="420" stroke="#e2e8f0" stroke-width="0.5"/>
<line x1="80" y1="160.8" x2="860" y2="160.8" stroke="#e2e8f0" stroke-width="0.5"/>
<text x="641.6" y="436" text-anchor="middle" font-size="9" fill="#94a3b8">10^18</text>
<text x="72" y="163.8" text-anchor="end" font-size="9" fill="#94a3b8">10^18</text>
<line x1="704" y1="60" x2="704" y2="420" stroke="#e2e8f0" stroke-width="0.5"/>
<line x1="80" y1="132" x2="860" y2="132" stroke="#e2e8f0" stroke-width="0.5"/>
<text x="704" y="436" text-anchor="middle" font-size="9" fill="#94a3b8">10^20</text>
<text x="72" y="135" text-anchor="end" font-size="9" fill="#94a3b8">10^20</text>
<line x1="766.4" y1="60" x2="766.4" y2="420" stroke="#e2e8f0" stroke-width="0.5"/>
<line x1="80" y1="103.19999999999999" x2="860" y2="103.19999999999999" stroke="#e2e8f0" stroke-width="0.5"/>
<text x="766.4" y="436" text-anchor="middle" font-size="9" fill="#94a3b8">10^22</text>
<text x="72" y="106.19999999999999" text-anchor="end" font-size="9" fill="#94a3b8">10^22</text>
<line x1="828.8" y1="60" x2="828.8" y2="420" stroke="#e2e8f0" stroke-width="0.5"/>
<line x1="80" y1="74.40000000000003" x2="860" y2="74.40000000000003" stroke="#e2e8f0" stroke-width="0.5"/>
<text x="828.8" y="436" text-anchor="middle" font-size="9" fill="#94a3b8">10^24</text>
<text x="72" y="77.40000000000003" text-anchor="end" font-size="9" fill="#94a3b8">10^24</text>
<text x="450" y="492" text-anchor="middle" font-size="10" fill="#334155">Distance (meters, log scale)</text>
<text x="14" y="250" text-anchor="middle" font-size="10" fill="#334155" transform="rotate(-90, 14, 250)">Whip Range d_max (meters, log scale)</text>
<line x1="80" y1="420" x2="860" y2="60" stroke="#f59e0b" stroke-width="1.5" stroke-dasharray="6,4" opacity="0.6"/>
<text x="855" y="74" text-anchor="end" font-size="8" fill="#f59e0b">d_max = d (threshold)</text>
<polyline points="80,412.8 111.2,409.36472696601845 204.8,359.4606722497547 301.6834131432759,341.497752093658 415.0004104523878,276.62359240585135 597.9842717294325,182.39999999999998 734.4478034557359,67.19999999999999" fill="none" stroke="#334155" stroke-width="2" opacity="0.3"/>
<circle cx="80" cy="412.8" r="6" fill="#0f766e" stroke="white" stroke-width="2"/>
<text x="80" y="400.8" text-anchor="middle" font-size="9" font-weight="600" fill="#0f766e">Across a table</text>
<text x="80" y="388.8" text-anchor="middle" font-size="7" fill="#94a3b8">1 meter | N=1</text>
<text x="90" y="416.8" font-size="8" fill="#0f766e">✓</text>
<circle cx="111.2" cy="409.36472696601845" r="6" fill="#6366f1" stroke="white" stroke-width="2"/>
<text x="111.2" y="397.36472696601845" text-anchor="middle" font-size="9" font-weight="600" fill="#6366f1">Across a room</text>
<text x="111.2" y="385.36472696601845" text-anchor="middle" font-size="7" fill="#94a3b8">10 meters | N=3</text>
<circle cx="204.8" cy="359.4606722497547" r="6" fill="#d97706" stroke="white" stroke-width="2"/>
<text x="204.8" y="347.4606722497547" text-anchor="middle" font-size="9" font-weight="600" fill="#d97706">Across a city</text>
<text x="204.8" y="335.4606722497547" text-anchor="middle" font-size="7" fill="#94a3b8">10 km | N=256</text>
<text x="214.8" y="363.4606722497547" font-size="8" fill="#d97706">✓</text>
<circle cx="301.6834131432759" cy="341.497752093658" r="6" fill="#2563eb" stroke="white" stroke-width="2"/>
<text x="301.6834131432759" y="329.497752093658" text-anchor="middle" font-size="9" font-weight="600" fill="#2563eb">Across the Earth</text>
<text x="301.6834131432759" y="317.497752093658" text-anchor="middle" font-size="7" fill="#94a3b8">12,742 km | N=80</text>
<circle cx="415.0004104523878" cy="276.62359240585135" r="6" fill="#dc2626" stroke="white" stroke-width="2"/>
<text x="415.0004104523878" y="264.62359240585135" text-anchor="middle" font-size="9" font-weight="600" fill="#dc2626">Earth to Mars</text>
<text x="415.0004104523878" y="252.62359240585135" text-anchor="middle" font-size="7" fill="#94a3b8">54.6 million km | N=4,096</text>
<circle cx="597.9842717294325" cy="182.39999999999998" r="6" fill="#7c3aed" stroke="white" stroke-width="2"/>
<text x="597.9842717294325" y="170.39999999999998" text-anchor="middle" font-size="9" font-weight="600" fill="#7c3aed">To Alpha Centauri</text>
<text x="597.9842717294325" y="158.39999999999998" text-anchor="middle" font-size="7" fill="#94a3b8">4.24 light-years | N=10⁹</text>
<circle cx="734.4478034557359" cy="67.19999999999999" r="6" fill="#0891b2" stroke="white" stroke-width="2"/>
<text x="734.4478034557359" y="55.19999999999999" text-anchor="middle" font-size="9" font-weight="600" fill="#0891b2">Across the galaxy</text>
<text x="734.4478034557359" y="43.19999999999999" text-anchor="middle" font-size="7" fill="#94a3b8">100,000 light-years | N=10¹⁵</text>
<text x="744.4478034557359" y="71.19999999999999" font-size="8" fill="#0891b2">✓</text>
<text x="90" y="76" font-size="9" fill="#334155">Above diagonal: signal reaches. Below: too far.</text>
<text x="90" y="88" font-size="8" fill="#94a3b8">Fork more paths (increase N) to push points upward.</text>
</svg>