<svg aria-labelledby="aeon-viz-scene-static-cosmic-explainer-title aeon-viz-scene-static-cosmic-explainer-desc" class="wallington-aeon-viz-science-svg" viewBox="0 0 1200 760" style="width:100%;height:auto;display:block" xmlns="http://www.w3.org/2000/svg"><title id="aeon-viz-scene-static-cosmic-explainer-title">Cosmic Time and Scale from Bythos to Pleroma</title><desc id="aeon-viz-scene-static-cosmic-explainer-desc">Two-panel cosmic explainer with a golden spiral time surface on the left and a scale-over-time chart on the right.</desc><defs><linearGradient id="aeon-viz-scene-static-cosmic-explainer-bg" x1="0%" y1="0%" x2="100%" y2="100%"><stop offset="0%" stop-color="#07131f"></stop><stop offset="100%" stop-color="#0c2436"></stop></linearGradient><linearGradient id="aeon-viz-scene-static-cosmic-explainer-progress" x1="0%" y1="0%" x2="100%" y2="0%"><stop offset="0%" stop-color="#9ae9ff"></stop><stop offset="100%" stop-color="#f0bb6b"></stop></linearGradient></defs><rect width="1200" height="760" rx="26" fill="url(#aeon-viz-scene-static-cosmic-explainer-bg)"></rect><rect x="26" y="26" width="1148" height="708" rx="24" fill="rgba(8, 23, 36, 0.56)" stroke="rgba(150, 204, 226, 0.18)"></rect><text x="44" y="64" fill="#eefbff" font-size="28" font-weight="700" font-family="&quot;Atkinson Hyperlegible&quot;, ui-sans-serif, system-ui, sans-serif">Cosmic Time and Scale from Bythos to Pleroma</text><text x="44" y="94" fill="#9ac7d8" font-size="15" font-family="&quot;Atkinson Hyperlegible&quot;, ui-sans-serif, system-ui, sans-serif">Authored 23% progress along the chapter&#x27;s golden spiral, with the present marked near φ Lorenzos</text><text x="44" y="120" fill="#cfe8f2" font-size="13" font-family="&quot;Atkinson Hyperlegible&quot;, ui-sans-serif, system-ui, sans-serif"><tspan x="44" dy="0">The left panel treats the universe as a golden-spiral time surface with an authored</tspan><tspan x="44" dy="18">23% loading bar; the right panel uses the same milestones to show size growth from a</tspan><tspan x="44" dy="18">Planck-scale origin to the late authored horizon.</tspan></text><text x="44" y="164" fill="#75afc8" font-size="12" font-family="&quot;Atkinson Hyperlegible&quot;, ui-sans-serif, system-ui, sans-serif"><tspan x="44" dy="0">Figure 3c. Cosmic explainer for Chapter 17. The left panel places the manuscript&#x27;s time language on a golden</tspan><tspan x="44" dy="16">spiral with an authored 23% progress arc and a present marker near φ Lorenzos; the right panel cross-highlights</tspan><tspan x="44" dy="16">the same milestones on a log-scale growth curve from Bythos through the current observable horizon to the late</tspan><tspan x="44" dy="16">Pleroma limit.</tspan></text><rect x="42" y="148" width="543" height="548" rx="22" fill="#0b2131" stroke="rgba(150, 204, 226, 0.2)"></rect><rect x="615" y="148" width="543" height="548" rx="22" fill="#0b2131" stroke="rgba(150, 204, 226, 0.2)"></rect><text x="68" y="182" fill="#eefbff" font-size="18" font-weight="700" font-family="&quot;Atkinson Hyperlegible&quot;, ui-sans-serif, system-ui, sans-serif">Time of the universe</text><text x="68" y="204" fill="#9ac7d8" font-size="12" font-family="&quot;Atkinson Hyperlegible&quot;, ui-sans-serif, system-ui, sans-serif">Golden spiral + authored lifetime bar (23%)</text><text x="641" y="182" fill="#eefbff" font-size="18" font-weight="700" font-family="&quot;Atkinson Hyperlegible&quot;, ui-sans-serif, system-ui, sans-serif">Scale of the universe</text><text x="641" y="204" fill="#9ac7d8" font-size="12" font-family="&quot;Atkinson Hyperlegible&quot;, ui-sans-serif, system-ui, sans-serif">Log-scale growth from Bythos to the far-future ceiling</text><polyline points="313.50,416.00 315.34,415.81 317.24,415.91 319.15,416.30 321.03,417.00 322.82,418.00 324.49,419.29 325.97,420.86 327.23,422.68 328.22,424.71 328.90,426.92 329.26,429.27 329.25,431.69 328.87,434.15 328.11,436.57 326.96,438.90 325.44,441.07 323.57,443.04 321.37,444.74 318.90,446.11 316.19,447.12 313.29,447.71 310.28,447.87 307.22,447.57 304.17,446.79 301.22,445.54 298.44,443.82 295.89,441.66 293.66,439.09 291.80,436.16 290.38,432.91 289.45,429.43 289.04,425.77 289.19,422.03 289.91,418.28 291.22,414.61 293.09,411.12 295.52,407.89 298.45,405.01 301.85,402.56 305.65,400.61 309.76,399.23 314.12,398.47 318.62,398.37 323.16,398.96 327.64,400.25 331.95,402.23 335.98,404.88 339.63,408.17 342.80,412.02 345.40,416.39 347.35,421.18 348.57,426.28 349.03,431.61 348.67,437.03 347.48,442.42 345.47,447.67 342.64,452.63 339.05,457.18 334.74,461.21 329.79,464.60 324.31,467.25 318.40,469.08 312.18,470.02 305.79,470.01 299.37,469.03 293.08,467.07 287.05,464.14 281.45,460.28 276.41,455.55 272.07,450.03 268.55,443.83 265.97,437.07 264.40,429.89 263.92,422.44 264.57,414.89 266.37,407.41 269.31,400.17 273.37,393.36 278.48,387.14 284.56,381.68 291.48,377.12 299.13,373.60 307.33,371.23 315.93,370.10 324.72,370.27 333.52,371.78 342.12,374.63 350.31,378.80 357.89,384.22 364.67,390.82 370.47,398.47 375.13,407.02 378.50,416.30 380.47,426.13 380.95,436.28 379.89,446.54 377.27,456.66 373.11,466.41 367.45,475.56 360.38,483.87 352.04,491.14 342.57,497.15 332.16,501.74 321.03,504.77 309.41,506.11 297.55,505.69 285.73,503.47 274.22,499.45 263.29,493.67 253.22,486.22 244.24,477.22 236.62,466.84 230.55,455.27 226.23,442.76 223.79,429.57 223.35,415.97 224.97,402.28 228.67,388.80 234.43,375.86 242.16,363.77 251.75,352.82 263.01,343.30 275.74,335.47 289.69,329.56 304.55,325.75 320.03,324.19 335.77,324.98 351.43,328.15 366.63,333.71 381.02,341.58 394.24,351.65 405.96,363.74 415.87,377.63 423.68,393.05 429.18,409.68 432.16,427.17 432.49,445.15 430.10,463.20 424.97,480.93 417.14,497.90 406.72,513.72 393.89,527.99 378.88,540.33 361.97,550.41 343.50,557.95 323.86,562.70 303.48,564.48 282.79,563.17 262.27,558.73 242.39,551.17 223.63,540.58 206.44,527.13 191.27,511.06 178.52,492.67 168.53,472.32 161.61,450.43 158.00,427.46 157.87,403.91 161.30,380.30 168.32,357.19 178.85,335.11 192.74,314.60 209.75,296.16 229.58,280.28 251.85,267.38 276.09,257.84 301.81,251.96 328.45,249.98 355.42,252.02 382.12,258.16 407.92,268.34 432.21,282.45 454.39,300.25 473.89,321.43 490.21,345.60 502.89,372.26 511.55,400.87 515.88,430.83 515.67,461.47 510.83,492.11" fill="none" opacity="0.28" stroke="#4fa6c3" stroke-width="2"></polyline><polyline points="313.50,416.00 315.34,415.81 317.24,415.91 319.15,416.30 321.03,417.00 322.82,418.00 324.49,419.29 325.97,420.86 327.23,422.68 328.22,424.71 328.90,426.92 329.26,429.27 329.25,431.69 328.87,434.15 328.11,436.57 326.96,438.90 325.44,441.07 323.57,443.04 321.37,444.74 318.90,446.11 316.19,447.12 313.29,447.71 310.28,447.87 307.22,447.57 304.17,446.79 301.22,445.54 298.44,443.82 295.89,441.66 293.66,439.09 291.80,436.16 290.38,432.91 289.45,429.43 289.04,425.77 289.19,422.03 289.91,418.28 291.22,414.61 293.09,411.12 295.52,407.89 298.45,405.01 301.85,402.56 305.65,400.61" fill="none" stroke="url(#aeon-viz-scene-static-cosmic-explainer-progress)" stroke-linecap="round" stroke-width="7"></polyline><circle cx="313.5" cy="428" r="4" fill="#eefbff"></circle><circle cx="292.578692515976" cy="411.9598667884533" r="10" fill="rgba(255, 255, 255, 0.12)" stroke="#9ae9ff" stroke-width="2"></circle><circle cx="292.578692515976" cy="411.9598667884533" r="4.5" fill="#9ae9ff"></circle><text x="68" y="676" fill="#f0bb6b" font-size="13" font-weight="700" font-family="&quot;Atkinson Hyperlegible Mono&quot;, ui-monospace, Menlo, monospace">23% loading bar is authored display state, not a derived cosmology claim.</text><g><line x1="313.5" y1="416" x2="319.5" y2="386" stroke="#67ddcf" stroke-opacity="0.42" stroke-width="1.2"></line><circle cx="313.5" cy="416" r="6" fill="rgba(103, 221, 207, 0.12)" stroke="#67ddcf" stroke-width="1.8"></circle><text x="329.5" y="390" text-anchor="start" fill="#9ac7d8" font-size="12" font-weight="500" font-family="&quot;Atkinson Hyperlegible&quot;, ui-sans-serif, system-ui, sans-serif">Bythos</text></g><g><line x1="313.5672949171051" y1="415.9880629890318" x2="319.74656688232665" y2="377.98850238517986" stroke="#67ddcf" stroke-opacity="0.42" stroke-width="1.2"></line><circle cx="313.5672949171051" cy="415.9880629890318" r="6" fill="rgba(103, 221, 207, 0.12)" stroke="#67ddcf" stroke-width="1.8"></circle><text x="329.74656688232665" y="381.98850238517986" text-anchor="start" fill="#9ac7d8" font-size="12" font-weight="500" font-family="&quot;Atkinson Hyperlegible&quot;, ui-sans-serif, system-ui, sans-serif">Sige</text></g><g><line x1="298.74897552053426" y1="444.04027560900107" x2="279.2108420135227" y2="460.7616526215747" stroke="#67ddcf" stroke-opacity="0.42" stroke-width="1.2"></line><circle cx="298.74897552053426" cy="444.04027560900107" r="6" fill="rgba(103, 221, 207, 0.12)" stroke="#67ddcf" stroke-width="1.8"></circle><text x="269.2108420135227" y="464.7616526215747" text-anchor="end" fill="#9ac7d8" font-size="12" font-weight="500" font-family="&quot;Atkinson Hyperlegible&quot;, ui-sans-serif, system-ui, sans-serif">1 Lorenzo</text></g><g><line x1="292.578692515976" y1="411.9598667884533" x2="261.1835609940878" y2="384.92347309073494" stroke="#67ddcf" stroke-opacity="0.42" stroke-width="1.2"></line><circle cx="292.578692515976" cy="411.9598667884533" r="9" fill="rgba(103, 221, 207, 0.12)" stroke="#67ddcf" stroke-width="1.8"></circle><text x="251.18356099408783" y="388.92347309073494" text-anchor="end" fill="#9ac7d8" font-size="13" font-weight="700" font-family="&quot;Atkinson Hyperlegible&quot;, ui-sans-serif, system-ui, sans-serif">Now (φ Lo)</text></g><g><line x1="339.69816728399195" y1="408.2369392918533" x2="361.6646286201327" y2="386.1923507807616" stroke="#67ddcf" stroke-opacity="0.42" stroke-width="1.2"></line><circle cx="339.69816728399195" cy="408.2369392918533" r="6" fill="rgba(103, 221, 207, 0.12)" stroke="#67ddcf" stroke-width="1.8"></circle><text x="371.6646286201327" y="390.1923507807616" text-anchor="start" fill="#9ac7d8" font-size="12" font-weight="500" font-family="&quot;Atkinson Hyperlegible&quot;, ui-sans-serif, system-ui, sans-serif">φ² Lo</text></g><g><line x1="319.4710142342139" y1="468.8202777135213" x2="330.1025490252229" y2="498.52544853857444" stroke="#67ddcf" stroke-opacity="0.42" stroke-width="1.2"></line><circle cx="319.4710142342139" cy="468.8202777135213" r="6" fill="rgba(103, 221, 207, 0.12)" stroke="#67ddcf" stroke-width="1.8"></circle><text x="340.1025490252229" y="502.52544853857444" text-anchor="start" fill="#9ac7d8" font-size="12" font-weight="500" font-family="&quot;Atkinson Hyperlegible&quot;, ui-sans-serif, system-ui, sans-serif">φ³ Lo</text></g><g><line x1="378.68964358240817" y1="416.9983838650195" x2="404.41077612112986" y2="403.67018143875805" stroke="#67ddcf" stroke-opacity="0.42" stroke-width="1.2"></line><circle cx="378.68964358240817" cy="416.9983838650195" r="6" fill="rgba(103, 221, 207, 0.12)" stroke="#67ddcf" stroke-width="1.8"></circle><text x="414.41077612112986" y="407.67018143875805" text-anchor="start" fill="#9ac7d8" font-size="12" font-weight="500" font-family="&quot;Atkinson Hyperlegible&quot;, ui-sans-serif, system-ui, sans-serif">φ⁵ Lo</text></g><g><line x1="510.8252060009184" y1="492.11484599291424" x2="547.2590145223633" y2="502.7673218354128" stroke="#67ddcf" stroke-opacity="0.42" stroke-width="1.2"></line><circle cx="510.8252060009184" cy="492.11484599291424" r="6" fill="rgba(103, 221, 207, 0.12)" stroke="#67ddcf" stroke-width="1.8"></circle><text x="557.2590145223633" y="506.7673218354128" text-anchor="start" fill="#9ac7d8" font-size="12" font-weight="500" font-family="&quot;Atkinson Hyperlegible&quot;, ui-sans-serif, system-ui, sans-serif">Pleroma</text></g><line x1="669" y1="208" x2="669" y2="616" stroke="rgba(150, 204, 226, 0.22)"></line><line x1="669" y1="616" x2="1120" y2="616" stroke="rgba(150, 204, 226, 0.22)"></line><line x1="758.5814715959701" y1="208" x2="758.5814715959701" y2="616" stroke="#f0bb6b" stroke-dasharray="6 6" stroke-opacity="0.7"></line><text x="766.5814715959701" y="226" fill="#f0bb6b" font-size="11" font-family="&quot;Atkinson Hyperlegible Mono&quot;, ui-monospace, Menlo, monospace">now = 1.605 Lo</text><path d="M 669.00 616.00 L 669.09 491.36 L 733.85 221.44 L 758.58 220.07 L 789.32 218.74 L 823.90 217.40 L 902.20 214.72 L 1120.00 208.00" fill="none" stroke="#67ddcf" stroke-width="2.8" stroke-linecap="round" stroke-linejoin="round"></path><g><circle cx="669" cy="616" r="4.5" fill="#67ddcf"></circle><text x="669" y="602" text-anchor="middle" fill="#9ac7d8" font-size="11" font-weight="500" font-family="&quot;Atkinson Hyperlegible&quot;, ui-sans-serif, system-ui, sans-serif">Bythos</text></g><g><circle cx="669.0935175005168" cy="491.3592952997341" r="4.5" fill="#67ddcf"></circle><text x="669.0935175005168" y="511.3592952997341" text-anchor="middle" fill="#9ac7d8" font-size="11" font-weight="500" font-family="&quot;Atkinson Hyperlegible&quot;, ui-sans-serif, system-ui, sans-serif">Sige</text></g><g><circle cx="733.8537971130357" cy="221.4381231320009" r="4.5" fill="#67ddcf"></circle><text x="733.8537971130357" y="207.4381231320009" text-anchor="middle" fill="#9ac7d8" font-size="11" font-weight="500" font-family="&quot;Atkinson Hyperlegible&quot;, ui-sans-serif, system-ui, sans-serif">1 Lorenzo</text></g><g><circle cx="758.5814715959701" cy="220.07462392506255" r="4.5" fill="#67ddcf"></circle><text x="758.5814715959701" y="240.07462392506255" text-anchor="middle" fill="#9ac7d8" font-size="11" font-weight="500" font-family="&quot;Atkinson Hyperlegible&quot;, ui-sans-serif, system-ui, sans-serif">Now (φ Lo)</text></g><g><circle cx="789.3162720314273" cy="218.7431893456611" r="4.5" fill="#67ddcf"></circle><text x="789.3162720314273" y="204.7431893456611" text-anchor="middle" fill="#9ac7d8" font-size="11" font-weight="500" font-family="&quot;Atkinson Hyperlegible&quot;, ui-sans-serif, system-ui, sans-serif">φ² Lo</text></g><g><circle cx="823.9010308307688" cy="217.39879998823756" r="4.5" fill="#67ddcf"></circle><text x="823.9010308307688" y="237.39879998823756" text-anchor="middle" fill="#9ac7d8" font-size="11" font-weight="500" font-family="&quot;Atkinson Hyperlegible&quot;, ui-sans-serif, system-ui, sans-serif">φ³ Lo</text></g><g><circle cx="902.1975441550252" cy="214.71548032355355" r="4.5" fill="#67ddcf"></circle><text x="902.1975441550252" y="200.71548032355355" text-anchor="middle" fill="#9ac7d8" font-size="11" font-weight="500" font-family="&quot;Atkinson Hyperlegible&quot;, ui-sans-serif, system-ui, sans-serif">φ⁵ Lo</text></g><g><circle cx="1120" cy="208" r="4.5" fill="#67ddcf"></circle><text x="1120" y="228" text-anchor="middle" fill="#9ac7d8" font-size="11" font-weight="500" font-family="&quot;Atkinson Hyperlegible&quot;, ui-sans-serif, system-ui, sans-serif">Pleroma</text></g><text x="669" y="644" fill="#75afc8" font-size="12" font-family="&quot;Atkinson Hyperlegible&quot;, ui-sans-serif, system-ui, sans-serif">Lorenzos since origin</text><text x="639" y="412" fill="#75afc8" font-size="12" transform="rotate(-90 639 412)" font-family="&quot;Atkinson Hyperlegible&quot;, ui-sans-serif, system-ui, sans-serif">size (log scale)</text><rect x="934" y="226" width="188" height="160" rx="18" fill="rgba(9, 27, 40, 0.94)" stroke="rgba(154, 233, 255, 0.24)"></rect><text x="952" y="252" fill="#eefbff" font-size="16" font-weight="700" font-family="&quot;Atkinson Hyperlegible&quot;, ui-sans-serif, system-ui, sans-serif">Now (φ Lo)</text><text x="952" y="274" fill="#9ae9ff" font-size="12" font-family="&quot;Atkinson Hyperlegible Mono&quot;, ui-monospace, Menlo, monospace">1.605 Lo · 13.8 Gyr</text><text x="952" y="296" fill="#f0bb6b" font-size="12" font-family="&quot;Atkinson Hyperlegible Mono&quot;, ui-monospace, Menlo, monospace">93 Gly diameter</text><text x="952" y="324" fill="#d2e9f2" font-size="12" font-family="&quot;Atkinson Hyperlegible&quot;, ui-sans-serif, system-ui, sans-serif">Present marker used by the</text><text x="952" y="342" fill="#d2e9f2" font-size="12" font-family="&quot;Atkinson Hyperlegible&quot;, ui-sans-serif, system-ui, sans-serif">chapter&#x27;s Lorenzo framing.</text></svg>