<svg xmlns="http://www.w3.org/2000/svg" width="1420" height="940" viewBox="0 0 1420 940" role="img" aria-labelledby="title desc"><title id="title">Chapter 17 Gate 1 wall-clock figure</title><desc id="desc">A log-scale p50 latency dumbbell for sequential versus chunked execution and a paired median speedup confidence-interval plot for the Gate 1 six-host wall-clock matrix.</desc><defs><linearGradient id="gate1bg" x1="0%" y1="0%" x2="100%" y2="100%"><stop offset="0%" stop-color="#f7f3e8"/><stop offset="100%" stop-color="#fffdf8"/></linearGradient></defs><rect width="1420" height="940" rx="24" fill="url(#gate1bg)"/><text x="48" y="58" font-family="Georgia, serif" font-size="30" fill="#111827">Chapter 17 Gate 1 Wall-Clock Matrix</text><text x="48" y="88" font-family="Georgia, serif" font-size="15" fill="#4b5563">Source workers-dev-external-multihost6-distinct • 6 distinct hosts • 8/8 primary cells pass</text><text x="48" y="114" font-family="Georgia, serif" font-size="15" fill="#4b5563">Median speedups span 11.785x–21.62x; minimum CI lows stay at 11.365x and +3561 ms</text><rect x="40" y="140" width="720" height="736" rx="18" fill="#fffdfa" stroke="#d6d3c7"/><rect x="780" y="140" width="600" height="736" rx="18" fill="#fffdfa" stroke="#d6d3c7"/><text x="64" y="172" font-family="Georgia, serif" font-size="20" fill="#111827">p50 Completion Latency</text><text x="64" y="194" font-family="Georgia, serif" font-size="13" fill="#4b5563">Sequential versus chunked medians on a log-scale millisecond axis</text><text x="804" y="172" font-family="Georgia, serif" font-size="20" fill="#111827">Median Speedup</text><text x="804" y="194" font-family="Georgia, serif" font-size="13" fill="#4b5563">Paired median speedup with 95% bootstrap confidence intervals</text><line x1="344.25166587849554" y1="208" x2="344.25166587849554" y2="796" stroke="#e5e7eb" stroke-width="1"/><text x="344.25166587849554" y="820" text-anchor="middle" font-family="system-ui, sans-serif" font-size="12" fill="#6b7280">300</text><line x1="400.9924596529478" y1="208" x2="400.9924596529478" y2="796" stroke="#e5e7eb" stroke-width="1"/><text x="400.9924596529478" y="820" text-anchor="middle" font-family="system-ui, sans-serif" font-size="12" fill="#6b7280">500</text><line x1="477.9849193058956" y1="208" x2="477.9849193058956" y2="796" stroke="#e5e7eb" stroke-width="1"/><text x="477.9849193058956" y="820" text-anchor="middle" font-family="system-ui, sans-serif" font-size="12" fill="#6b7280">1000</text><line x1="600.0150806941044" y1="208" x2="600.0150806941044" y2="796" stroke="#e5e7eb" stroke-width="1"/><text x="600.0150806941044" y="820" text-anchor="middle" font-family="system-ui, sans-serif" font-size="12" fill="#6b7280">3000</text><line x1="733.7483341215045" y1="208" x2="733.7483341215045" y2="796" stroke="#e5e7eb" stroke-width="1"/><text x="733.7483341215045" y="820" text-anchor="middle" font-family="system-ui, sans-serif" font-size="12" fill="#6b7280">10000</text><text x="539" y="832" text-anchor="middle" font-family="system-ui, sans-serif" font-size="12" fill="#6b7280">p50 latency (ms, log scale)</text><line x1="812" y1="208" x2="812" y2="796" stroke="#e5e7eb" stroke-width="1"/><text x="812" y="820" text-anchor="middle" font-family="system-ui, sans-serif" font-size="12" fill="#6b7280">10</text><line x1="852" y1="208" x2="852" y2="796" stroke="#e5e7eb" stroke-width="1"/><text x="852" y="820" text-anchor="middle" font-family="system-ui, sans-serif" font-size="12" fill="#6b7280">12</text><line x1="892" y1="208" x2="892" y2="796" stroke="#e5e7eb" stroke-width="1"/><text x="892" y="820" text-anchor="middle" font-family="system-ui, sans-serif" font-size="12" fill="#6b7280">14</text><line x1="932" y1="208" x2="932" y2="796" stroke="#e5e7eb" stroke-width="1"/><text x="932" y="820" text-anchor="middle" font-family="system-ui, sans-serif" font-size="12" fill="#6b7280">16</text><line x1="972" y1="208" x2="972" y2="796" stroke="#e5e7eb" stroke-width="1"/><text x="972" y="820" text-anchor="middle" font-family="system-ui, sans-serif" font-size="12" fill="#6b7280">18</text><line x1="1012" y1="208" x2="1012" y2="796" stroke="#e5e7eb" stroke-width="1"/><text x="1012" y="820" text-anchor="middle" font-family="system-ui, sans-serif" font-size="12" fill="#6b7280">20</text><line x1="1052" y1="208" x2="1052" y2="796" stroke="#e5e7eb" stroke-width="1"/><text x="1052" y="820" text-anchor="middle" font-family="system-ui, sans-serif" font-size="12" fill="#6b7280">22</text><line x1="1092" y1="208" x2="1092" y2="796" stroke="#e5e7eb" stroke-width="1"/><text x="1092" y="820" text-anchor="middle" font-family="system-ui, sans-serif" font-size="12" fill="#6b7280">24</text><line x1="1132" y1="208" x2="1132" y2="796" stroke="#e5e7eb" stroke-width="1"/><text x="1132" y="820" text-anchor="middle" font-family="system-ui, sans-serif" font-size="12" fill="#6b7280">26</text><text x="972" y="832" text-anchor="middle" font-family="system-ui, sans-serif" font-size="12" fill="#6b7280">median speedup (x)</text><text x="1160" y="214" font-family="system-ui, sans-serif" font-size="12" fill="#6b7280">median gain</text><line x1="68" y1="884" x2="1352" y2="884" stroke="#d6d3c7" stroke-width="1"/><circle cx="96" cy="906" r="6" fill="#0f766e"/><text x="110" y="911" font-family="system-ui, sans-serif" font-size="12" fill="#4b5563">chunked p50</text><circle cx="188" cy="906" r="6" fill="#c2410c"/><text x="202" y="911" font-family="system-ui, sans-serif" font-size="12" fill="#4b5563">sequential p50</text><line x1="318" y1="900" x2="354" y2="900" stroke="#4b5563" stroke-width="3"/><circle cx="336" cy="900" r="5" fill="#0f766e"/><text x="366" y="905" font-family="system-ui, sans-serif" font-size="12" fill="#4b5563">speedup median with CI</text><rect x="52" y="198" width="692" height="44" rx="10" fill="#fffdfa" opacity="0.85"/><rect x="792" y="198" width="576" height="44" rx="10" fill="#fffdfa" opacity="0.85"/><circle cx="72" cy="219" r="6" fill="#64748b"/><text x="88" y="222" font-family="Georgia, serif" font-size="15" fill="#111827">24 tok • 4 nodes • B6</text><text x="88" y="240" font-family="system-ui, sans-serif" font-size="12" fill="#6b7280">RTT 1 ms • loss 0% • non-primary</text><line x1="353.201694799062" y1="232" x2="356.96859248404064" y2="232" stroke="#0f766e" stroke-width="3" opacity="0.35"/><line x1="629.1115887998494" y1="214" x2="634.3961453392021" y2="214" stroke="#c2410c" stroke-width="3" opacity="0.35"/><line x1="355.3660843651314" y1="223" x2="629.8388289929162" y2="223" stroke="#94a3b8" stroke-width="2"/><circle cx="355.3660843651314" cy="223" r="5.5" fill="#0f766e" stroke="#ffffff" stroke-width="1.5"/><circle cx="629.8388289929162" cy="223" r="5.5" fill="#c2410c" stroke="#ffffff" stroke-width="1.5"/><line x1="846.6337538578464" y1="223" x2="865.8704250585222" y2="223" stroke="#475569" stroke-width="3" opacity="0.75"/><line x1="846.6337538578464" y1="216" x2="846.6337538578464" y2="230" stroke="#475569" stroke-width="1.5" opacity="0.75"/><line x1="865.8704250585222" y1="216" x2="865.8704250585222" y2="230" stroke="#475569" stroke-width="1.5" opacity="0.75"/><circle cx="851.6037333774756" cy="223" r="5.5" fill="#475569" opacity="0.75"/><text x="1160" y="228" font-family="system-ui, sans-serif" font-size="12" fill="#374151">+3596 ms</text><rect x="52" y="254" width="692" height="44" rx="10" fill="#f8fafc" opacity="0.85"/><rect x="792" y="254" width="576" height="44" rx="10" fill="#f8fafc" opacity="0.85"/><circle cx="72" cy="275" r="6" fill="#0f766e"/><text x="88" y="278" font-family="Georgia, serif" font-size="15" fill="#111827">24 tok • 4 nodes • B6</text><text x="88" y="296" font-family="system-ui, sans-serif" font-size="12" fill="#6b7280">RTT 3 ms • loss 0% • primary</text><line x1="355.03283873156136" y1="288" x2="364.14890294575616" y2="288" stroke="#0f766e" stroke-width="3" opacity="0.35"/><line x1="631.6555891136188" y1="270" x2="648.0612778572334" y2="270" stroke="#c2410c" stroke-width="3" opacity="0.35"/><line x1="361.2478962857224" y1="279" x2="636.1625868821104" y2="279" stroke="#94a3b8" stroke-width="2"/><circle cx="361.2478962857224" cy="279" r="5.5" fill="#0f766e" stroke="#ffffff" stroke-width="1.5"/><circle cx="636.1625868821104" cy="279" r="5.5" fill="#c2410c" stroke="#ffffff" stroke-width="1.5"/><line x1="844.3688506242182" y1="279" x2="862.4190165968006" y2="279" stroke="#0f766e" stroke-width="3" opacity="1"/><line x1="844.3688506242182" y1="272" x2="844.3688506242182" y2="286" stroke="#0f766e" stroke-width="1.5" opacity="1"/><line x1="862.4190165968006" y1="272" x2="862.4190165968006" y2="286" stroke="#0f766e" stroke-width="1.5" opacity="1"/><circle cx="850.2450011748218" cy="279" r="5.5" fill="#0f766e" opacity="1"/><text x="1160" y="284" font-family="system-ui, sans-serif" font-size="12" fill="#374151">+3811 ms</text><rect x="52" y="310" width="692" height="44" rx="10" fill="#fffdfa" opacity="0.85"/><rect x="792" y="310" width="576" height="44" rx="10" fill="#fffdfa" opacity="0.85"/><circle cx="72" cy="331" r="6" fill="#0f766e"/><text x="88" y="334" font-family="Georgia, serif" font-size="15" fill="#111827">24 tok • 4 nodes • B6</text><text x="88" y="352" font-family="system-ui, sans-serif" font-size="12" fill="#6b7280">RTT 3 ms • loss 2% • primary</text><line x1="357.46608247339253" y1="344" x2="365.4450228632804" y2="344" stroke="#0f766e" stroke-width="3" opacity="0.35"/><line x1="630.119247686494" y1="326" x2="655.4569834798885" y2="326" stroke="#c2410c" stroke-width="3" opacity="0.35"/><line x1="363.66315345726287" y1="335" x2="640.5591946711327" y2="335" stroke="#94a3b8" stroke-width="2"/><circle cx="363.66315345726287" cy="335" r="5.5" fill="#0f766e" stroke="#ffffff" stroke-width="1.5"/><circle cx="640.5591946711327" cy="335" r="5.5" fill="#c2410c" stroke="#ffffff" stroke-width="1.5"/><line x1="839.2924328213168" y1="335" x2="884.2307185214755" y2="335" stroke="#0f766e" stroke-width="3" opacity="1"/><line x1="839.2924328213168" y1="328" x2="839.2924328213168" y2="342" stroke="#0f766e" stroke-width="1.5" opacity="1"/><line x1="884.2307185214755" y1="328" x2="884.2307185214755" y2="342" stroke="#0f766e" stroke-width="1.5" opacity="1"/><circle cx="853.9588272627901" cy="335" r="5.5" fill="#0f766e" opacity="1"/><text x="1160" y="340" font-family="system-ui, sans-serif" font-size="12" fill="#374151">+3964 ms</text><rect x="52" y="366" width="692" height="44" rx="10" fill="#f8fafc" opacity="0.85"/><rect x="792" y="366" width="576" height="44" rx="10" fill="#f8fafc" opacity="0.85"/><circle cx="72" cy="387" r="6" fill="#0f766e"/><text x="88" y="390" font-family="Georgia, serif" font-size="15" fill="#111827">24 tok • 4 nodes • B6</text><text x="88" y="408" font-family="system-ui, sans-serif" font-size="12" fill="#6b7280">RTT 7 ms • loss 0% • primary</text><line x1="365.6113814758531" y1="400" x2="370.72326498721014" y2="400" stroke="#0f766e" stroke-width="3" opacity="0.35"/><line x1="639.5880375836321" y1="382" x2="643.7199148174926" y2="382" stroke="#c2410c" stroke-width="3" opacity="0.35"/><line x1="368.18012172030865" y1="391" x2="641.3684522204485" y2="391" stroke="#94a3b8" stroke-width="2"/><circle cx="368.18012172030865" cy="391" r="5.5" fill="#0f766e" stroke="#ffffff" stroke-width="1.5"/><circle cx="641.3684522204485" cy="391" r="5.5" fill="#c2410c" stroke="#ffffff" stroke-width="1.5"/><line x1="842.1616576128218" y1="391" x2="855.954650797385" y2="391" stroke="#0f766e" stroke-width="3" opacity="1"/><line x1="842.1616576128218" y1="384" x2="842.1616576128218" y2="398" stroke="#0f766e" stroke-width="1.5" opacity="1"/><line x1="855.954650797385" y1="384" x2="855.954650797385" y2="398" stroke="#0f766e" stroke-width="1.5" opacity="1"/><circle cx="847.7093814511193" cy="391" r="5.5" fill="#0f766e" opacity="1"/><text x="1160" y="396" font-family="system-ui, sans-serif" font-size="12" fill="#374151">+3988 ms</text><rect x="52" y="422" width="692" height="44" rx="10" fill="#fffdfa" opacity="0.85"/><rect x="792" y="422" width="576" height="44" rx="10" fill="#fffdfa" opacity="0.85"/><circle cx="72" cy="443" r="6" fill="#0f766e"/><text x="88" y="446" font-family="Georgia, serif" font-size="15" fill="#111827">24 tok • 4 nodes • B6</text><text x="88" y="464" font-family="system-ui, sans-serif" font-size="12" fill="#6b7280">RTT 7 ms • loss 2% • primary</text><line x1="360.7364444129963" y1="456" x2="367.7361744087882" y2="456" stroke="#0f766e" stroke-width="3" opacity="0.35"/><line x1="639.8254234411883" y1="438" x2="642.9053504974643" y2="438" stroke="#c2410c" stroke-width="3" opacity="0.35"/><line x1="364.0045218987301" y1="447" x2="640.6445988390745" y2="447" stroke="#94a3b8" stroke-width="2"/><circle cx="364.0045218987301" cy="447" r="5.5" fill="#0f766e" stroke="#ffffff" stroke-width="1.5"/><circle cx="640.6445988390745" cy="447" r="5.5" fill="#c2410c" stroke="#ffffff" stroke-width="1.5"/><line x1="845.9578404111162" y1="447" x2="860.4395104164696" y2="447" stroke="#0f766e" stroke-width="3" opacity="1"/><line x1="845.9578404111162" y1="440" x2="845.9578404111162" y2="454" stroke="#0f766e" stroke-width="1.5" opacity="1"/><line x1="860.4395104164696" y1="440" x2="860.4395104164696" y2="454" stroke="#0f766e" stroke-width="1.5" opacity="1"/><circle cx="855.1876380284697" cy="447" r="5.5" fill="#0f766e" opacity="1"/><text x="1160" y="452" font-family="system-ui, sans-serif" font-size="12" fill="#374151">+3968 ms</text><rect x="52" y="478" width="692" height="44" rx="10" fill="#f8fafc" opacity="0.85"/><rect x="792" y="478" width="576" height="44" rx="10" fill="#f8fafc" opacity="0.85"/><line x1="64" y1="474" x2="1360" y2="474" stroke="#d6d3c7" stroke-width="1.5"/><circle cx="72" cy="499" r="6" fill="#64748b"/><text x="88" y="502" font-family="Georgia, serif" font-size="15" fill="#111827">36 tok • 6 nodes • B9</text><text x="88" y="520" font-family="system-ui, sans-serif" font-size="12" fill="#6b7280">RTT 1 ms • loss 0% • non-primary</text><line x1="382.4361483809069" y1="512" x2="389.4512055696904" y2="512" stroke="#0f766e" stroke-width="3" opacity="0.35"/><line x1="718.2207040401406" y1="494" x2="721.0931973226561" y2="494" stroke="#c2410c" stroke-width="3" opacity="0.35"/><line x1="385.00686791397044" y1="503" x2="719.7233446207979" y2="503" stroke="#94a3b8" stroke-width="2"/><circle cx="385.00686791397044" cy="503" r="5.5" fill="#0f766e" stroke="#ffffff" stroke-width="1.5"/><circle cx="719.7233446207979" cy="503" r="5.5" fill="#c2410c" stroke="#ffffff" stroke-width="1.5"/><line x1="1006.4114244024693" y1="503" x2="1031.1988621944759" y2="503" stroke="#475569" stroke-width="3" opacity="0.75"/><line x1="1006.4114244024693" y1="496" x2="1006.4114244024693" y2="510" stroke="#475569" stroke-width="1.5" opacity="0.75"/><line x1="1031.1988621944759" y1="496" x2="1031.1988621944759" y2="510" stroke="#475569" stroke-width="1.5" opacity="0.75"/><circle cx="1015.2551861458847" cy="503" r="5.5" fill="#475569" opacity="0.75"/><text x="1160" y="508" font-family="system-ui, sans-serif" font-size="12" fill="#374151">+8370 ms</text><rect x="52" y="534" width="692" height="44" rx="10" fill="#fffdfa" opacity="0.85"/><rect x="792" y="534" width="576" height="44" rx="10" fill="#fffdfa" opacity="0.85"/><circle cx="72" cy="555" r="6" fill="#0f766e"/><text x="88" y="558" font-family="Georgia, serif" font-size="15" fill="#111827">36 tok • 6 nodes • B9</text><text x="88" y="576" font-family="system-ui, sans-serif" font-size="12" fill="#6b7280">RTT 3 ms • loss 0% • primary</text><line x1="382.98819938908025" y1="568" x2="392.6931972455407" y2="568" stroke="#0f766e" stroke-width="3" opacity="0.35"/><line x1="718.521999241859" y1="550" x2="726.1610781388979" y2="550" stroke="#c2410c" stroke-width="3" opacity="0.35"/><line x1="388.4853293671706" y1="559" x2="719.8938947248496" y2="559" stroke="#94a3b8" stroke-width="2"/><circle cx="388.4853293671706" cy="559" r="5.5" fill="#0f766e" stroke="#ffffff" stroke-width="1.5"/><circle cx="719.8938947248496" cy="559" r="5.5" fill="#c2410c" stroke="#ffffff" stroke-width="1.5"/><line x1="1003.3080248111152" y1="559" x2="1043.6590592663047" y2="559" stroke="#0f766e" stroke-width="3" opacity="1"/><line x1="1003.3080248111152" y1="552" x2="1003.3080248111152" y2="566" stroke="#0f766e" stroke-width="1.5" opacity="1"/><line x1="1043.6590592663047" y1="552" x2="1043.6590592663047" y2="566" stroke="#0f766e" stroke-width="1.5" opacity="1"/><circle cx="1014.5039693924602" cy="559" r="5.5" fill="#0f766e" opacity="1"/><text x="1160" y="564" font-family="system-ui, sans-serif" font-size="12" fill="#374151">+8381 ms</text><rect x="52" y="590" width="692" height="44" rx="10" fill="#f8fafc" opacity="0.85"/><rect x="792" y="590" width="576" height="44" rx="10" fill="#f8fafc" opacity="0.85"/><circle cx="72" cy="611" r="6" fill="#0f766e"/><text x="88" y="614" font-family="Georgia, serif" font-size="15" fill="#111827">36 tok • 6 nodes • B9</text><text x="88" y="632" font-family="system-ui, sans-serif" font-size="12" fill="#6b7280">RTT 3 ms • loss 2% • primary</text><line x1="390.505281853692" y1="624" x2="401.0605103446219" y2="624" stroke="#0f766e" stroke-width="3" opacity="0.35"/><line x1="720.9541674005752" y1="606" x2="724.7099936552208" y2="606" stroke="#c2410c" stroke-width="3" opacity="0.35"/><line x1="392.73792380336124" y1="615" x2="723.3270492101105" y2="615" stroke="#94a3b8" stroke-width="2"/><circle cx="392.73792380336124" cy="615" r="5.5" fill="#0f766e" stroke="#ffffff" stroke-width="1.5"/><circle cx="723.3270492101105" cy="615" r="5.5" fill="#c2410c" stroke="#ffffff" stroke-width="1.5"/><line x1="975.3060387070633" y1="615" x2="1012.9514119502271" y2="615" stroke="#0f766e" stroke-width="3" opacity="1"/><line x1="975.3060387070633" y1="608" x2="975.3060387070633" y2="622" stroke="#0f766e" stroke-width="1.5" opacity="1"/><line x1="1012.9514119502271" y1="608" x2="1012.9514119502271" y2="622" stroke="#0f766e" stroke-width="1.5" opacity="1"/><circle cx="995.0780923792761" cy="615" r="5.5" fill="#0f766e" opacity="1"/><text x="1160" y="620" font-family="system-ui, sans-serif" font-size="12" fill="#374151">+8627 ms</text><rect x="52" y="646" width="692" height="44" rx="10" fill="#fffdfa" opacity="0.85"/><rect x="792" y="646" width="576" height="44" rx="10" fill="#fffdfa" opacity="0.85"/><circle cx="72" cy="667" r="6" fill="#0f766e"/><text x="88" y="670" font-family="Georgia, serif" font-size="15" fill="#111827">36 tok • 6 nodes • B9</text><text x="88" y="688" font-family="system-ui, sans-serif" font-size="12" fill="#6b7280">RTT 7 ms • loss 0% • primary</text><line x1="392.12013351082135" y1="680" x2="401.8379700825987" y2="680" stroke="#0f766e" stroke-width="3" opacity="0.35"/><line x1="733.4686532535407" y1="662" x2="746.8600944814684" y2="662" stroke="#c2410c" stroke-width="3" opacity="0.35"/><line x1="398.41548538324884" y1="671" x2="738.399988853718" y2="671" stroke="#94a3b8" stroke-width="2"/><circle cx="398.41548538324884" cy="671" r="5.5" fill="#0f766e" stroke="#ffffff" stroke-width="1.5"/><circle cx="738.399988853718" cy="671" r="5.5" fill="#c2410c" stroke="#ffffff" stroke-width="1.5"/><line x1="1014.207813858987" y1="671" x2="1072.324648945451" y2="671" stroke="#0f766e" stroke-width="3" opacity="1"/><line x1="1014.207813858987" y1="664" x2="1014.207813858987" y2="678" stroke="#0f766e" stroke-width="1.5" opacity="1"/><line x1="1072.324648945451" y1="664" x2="1072.324648945451" y2="678" stroke="#0f766e" stroke-width="1.5" opacity="1"/><circle cx="1044.407622564383" cy="671" r="5.5" fill="#0f766e" opacity="1"/><text x="1160" y="676" font-family="system-ui, sans-serif" font-size="12" fill="#374151">+9945 ms</text><rect x="52" y="702" width="692" height="44" rx="10" fill="#f8fafc" opacity="0.85"/><rect x="792" y="702" width="576" height="44" rx="10" fill="#f8fafc" opacity="0.85"/><circle cx="72" cy="723" r="6" fill="#0f766e"/><text x="88" y="726" font-family="Georgia, serif" font-size="15" fill="#111827">36 tok • 6 nodes • B9</text><text x="88" y="744" font-family="system-ui, sans-serif" font-size="12" fill="#6b7280">RTT 7 ms • loss 2% • primary</text><line x1="394.9767212747729" y1="736" x2="398.5552379793983" y2="736" stroke="#0f766e" stroke-width="3" opacity="0.35"/><line x1="734.1717149496425" y1="718" x2="747.4319642885814" y2="718" stroke="#c2410c" stroke-width="3" opacity="0.35"/><line x1="396.8521409911333" y1="727" x2="736.1110382226766" y2="727" stroke="#94a3b8" stroke-width="2"/><circle cx="396.8521409911333" cy="727" r="5.5" fill="#0f766e" stroke="#ffffff" stroke-width="1.5"/><circle cx="736.1110382226766" cy="727" r="5.5" fill="#c2410c" stroke="#ffffff" stroke-width="1.5"/><line x1="1029.5821928169391" y1="727" x2="1100.774746782954" y2="727" stroke="#0f766e" stroke-width="3" opacity="1"/><line x1="1029.5821928169391" y1="720" x2="1029.5821928169391" y2="734" stroke="#0f766e" stroke-width="1.5" opacity="1"/><line x1="1100.774746782954" y1="720" x2="1100.774746782954" y2="734" stroke="#0f766e" stroke-width="1.5" opacity="1"/><circle cx="1032.842807656726" cy="727" r="5.5" fill="#0f766e" opacity="1"/><text x="1160" y="732" font-family="system-ui, sans-serif" font-size="12" fill="#374151">+9734 ms</text></svg>
