<svg xmlns="http://www.w3.org/2000/svg" width="1240" height="980" viewBox="0 0 1240 980" role="img" aria-labelledby="title desc"><title id="title">Chapter 17 correspondence boundary figure</title><desc id="desc">Invariant matrix, toy-attention error chart with bootstrap intervals, seeded Gnosis cancellation benchmark with seed intervals, and seeded Gnosis mini-MoE routing benchmark with seed intervals.</desc><defs><linearGradient id="bg" x1="0%" y1="0%" x2="100%" y2="100%"><stop offset="0%" stop-color="#f7f3e8"/><stop offset="100%" stop-color="#fffdf8"/></linearGradient></defs><rect width="1240" height="980" fill="url(#bg)" rx="24"/><text x="48" y="56" font-family="Georgia, serif" font-size="28" fill="#111827">Chapter 17 Correspondence Boundary</text><text x="48" y="84" font-family="Georgia, serif" font-size="14" fill="#4b5563">Invariant matrix plus three interval-backed behavioral benchmarks</text><rect x="40" y="120" width="560" height="350" rx="20" fill="#fffaf0" stroke="#d6d3d1"/><text x="64" y="156" font-family="Georgia, serif" font-size="22" fill="#111827">Invariant Loss Matrix</text><text x="64" y="180" font-family="Georgia, serif" font-size="13" fill="#57534e">Same path family, fold rule swapped</text><text x="194" y="216" font-family="ui-monospace, SFMono-Regular, monospace" font-size="12" fill="#6b7280">Kernel</text><text x="276" y="216" font-family="ui-monospace, SFMono-Regular, monospace" font-size="12" fill="#6b7280">Partition</text><text x="358" y="216" font-family="ui-monospace, SFMono-Regular, monospace" font-size="12" fill="#6b7280">Order</text><text x="440" y="216" font-family="ui-monospace, SFMono-Regular, monospace" font-size="12" fill="#6b7280">Cancel</text><text x="64" y="254" font-family="ui-monospace, SFMono-Regular, monospace" font-size="13" fill="#111827">linear</text><rect x="174" y="232" width="60" height="30" rx="10" fill="#0f766e" opacity="0.92"/><text x="204" y="252" text-anchor="middle" font-family="ui-monospace, SFMono-Regular, monospace" font-size="12" fill="#f8fafc">yes</text><rect x="256" y="232" width="60" height="30" rx="10" fill="#0f766e" opacity="0.92"/><text x="286" y="252" text-anchor="middle" font-family="ui-monospace, SFMono-Regular, monospace" font-size="12" fill="#f8fafc">yes</text><rect x="338" y="232" width="60" height="30" rx="10" fill="#0f766e" opacity="0.92"/><text x="368" y="252" text-anchor="middle" font-family="ui-monospace, SFMono-Regular, monospace" font-size="12" fill="#f8fafc">yes</text><rect x="420" y="232" width="60" height="30" rx="10" fill="#0f766e" opacity="0.92"/><text x="450" y="252" text-anchor="middle" font-family="ui-monospace, SFMono-Regular, monospace" font-size="12" fill="#f8fafc">yes</text><text x="64" y="304" font-family="ui-monospace, SFMono-Regular, monospace" font-size="13" fill="#111827">winner-take-all</text><rect x="174" y="282" width="60" height="30" rx="10" fill="#b91c1c" opacity="0.92"/><text x="204" y="302" text-anchor="middle" font-family="ui-monospace, SFMono-Regular, monospace" font-size="12" fill="#f8fafc">no</text><rect x="256" y="282" width="60" height="30" rx="10" fill="#b91c1c" opacity="0.92"/><text x="286" y="302" text-anchor="middle" font-family="ui-monospace, SFMono-Regular, monospace" font-size="12" fill="#f8fafc">no</text><rect x="338" y="282" width="60" height="30" rx="10" fill="#b91c1c" opacity="0.92"/><text x="368" y="302" text-anchor="middle" font-family="ui-monospace, SFMono-Regular, monospace" font-size="12" fill="#f8fafc">no</text><rect x="420" y="282" width="60" height="30" rx="10" fill="#b91c1c" opacity="0.92"/><text x="450" y="302" text-anchor="middle" font-family="ui-monospace, SFMono-Regular, monospace" font-size="12" fill="#f8fafc">no</text><text x="64" y="354" font-family="ui-monospace, SFMono-Regular, monospace" font-size="13" fill="#111827">early-stop</text><rect x="174" y="332" width="60" height="30" rx="10" fill="#b91c1c" opacity="0.92"/><text x="204" y="352" text-anchor="middle" font-family="ui-monospace, SFMono-Regular, monospace" font-size="12" fill="#f8fafc">no</text><rect x="256" y="332" width="60" height="30" rx="10" fill="#b91c1c" opacity="0.92"/><text x="286" y="352" text-anchor="middle" font-family="ui-monospace, SFMono-Regular, monospace" font-size="12" fill="#f8fafc">no</text><rect x="338" y="332" width="60" height="30" rx="10" fill="#b91c1c" opacity="0.92"/><text x="368" y="352" text-anchor="middle" font-family="ui-monospace, SFMono-Regular, monospace" font-size="12" fill="#f8fafc">no</text><rect x="420" y="332" width="60" height="30" rx="10" fill="#b91c1c" opacity="0.92"/><text x="450" y="352" text-anchor="middle" font-family="ui-monospace, SFMono-Regular, monospace" font-size="12" fill="#f8fafc">no</text><rect x="60" y="376" width="520" height="62" rx="12" fill="#f8fafc" stroke="#e5e7eb"/><text x="76" y="400" font-family="ui-monospace, SFMono-Regular, monospace" font-size="11" fill="#6b7280">winner-take-all distances: kernel 0.354, partition 2.000, cancellation 1.000</text><text x="76" y="422" font-family="ui-monospace, SFMono-Regular, monospace" font-size="11" fill="#6b7280">Linear remains the only strategy preserving all four invariants.</text><rect x="640" y="120" width="560" height="350" rx="20" fill="#fffaf0" stroke="#d6d3d1"/><text x="664" y="156" font-family="Georgia, serif" font-size="22" fill="#111827">Toy Attention Error</text><text x="664" y="180" font-family="Georgia, serif" font-size="13" fill="#57534e">Fixed keys, values, score function, and query grid</text><text x="664" y="206" font-family="ui-monospace, SFMono-Regular, monospace" font-size="12" fill="#374151">Mean squared error with bootstrap 95% CI</text><line x1="684" y1="412" x2="1170" y2="412" stroke="#9ca3af" stroke-width="1"/><rect x="722" y="412" width="70" height="0" rx="12" fill="#0f766e"/><line x1="757" y1="412" x2="757" y2="412" stroke="#111827" stroke-width="2"/><line x1="747" y1="412" x2="767" y2="412" stroke="#111827" stroke-width="2"/><line x1="747" y1="412" x2="767" y2="412" stroke="#111827" stroke-width="2"/><text x="757" y="400" text-anchor="middle" font-family="ui-monospace, SFMono-Regular, monospace" font-size="11" fill="#374151">0.000</text><text x="757" y="436" text-anchor="middle" font-family="ui-monospace, SFMono-Regular, monospace" font-size="12" fill="#111827">linear</text><text x="757" y="454" text-anchor="middle" font-family="ui-monospace, SFMono-Regular, monospace" font-size="11" fill="#6b7280">exact 1.000</text><rect x="872" y="384.8454824792999" width="70" height="27.154517520700097" rx="12" fill="#c2410c"/><line x1="907" y1="376.9696710361575" x2="907" y2="391.9898115372821" stroke="#111827" stroke-width="2"/><line x1="897" y1="376.9696710361575" x2="917" y2="376.9696710361575" stroke="#111827" stroke-width="2"/><line x1="897" y1="391.9898115372821" x2="917" y2="391.9898115372821" stroke="#111827" stroke-width="2"/><text x="907" y="364.9696710361575" text-anchor="middle" font-family="ui-monospace, SFMono-Regular, monospace" font-size="11" fill="#374151">0.163</text><text x="907" y="436" text-anchor="middle" font-family="ui-monospace, SFMono-Regular, monospace" font-size="12" fill="#111827">winner-take-all</text><text x="907" y="454" text-anchor="middle" font-family="ui-monospace, SFMono-Regular, monospace" font-size="11" fill="#6b7280">exact 0.185</text><rect x="1022" y="233.96603033555144" width="70" height="178.03396966444856" rx="12" fill="#991b1b"/><line x1="1057" y1="198" x2="1057" y2="269.43795234970275" stroke="#111827" stroke-width="2"/><line x1="1047" y1="198" x2="1067" y2="198" stroke="#111827" stroke-width="2"/><line x1="1047" y1="269.43795234970275" x2="1067" y2="269.43795234970275" stroke="#111827" stroke-width="2"/><text x="1057" y="186" text-anchor="middle" font-family="ui-monospace, SFMono-Regular, monospace" font-size="11" fill="#374151">1.071</text><text x="1057" y="436" text-anchor="middle" font-family="ui-monospace, SFMono-Regular, monospace" font-size="12" fill="#111827">early-stop</text><text x="1057" y="454" text-anchor="middle" font-family="ui-monospace, SFMono-Regular, monospace" font-size="11" fill="#6b7280">exact 0.074</text><rect x="40" y="510" width="560" height="390" rx="20" fill="#fffaf0" stroke="#d6d3d1"/><text x="64" y="546" font-family="Georgia, serif" font-size="22" fill="#111827">Seeded Gnosis Cancellation Benchmark</text><text x="64" y="570" font-family="Georgia, serif" font-size="13" fill="#57534e">Same 4-parameter topology; cancel-sensitive L-minus-R learner</text><text x="64" y="596" font-family="ui-monospace, SFMono-Regular, monospace" font-size="12" fill="#374151">Eval MSE with seed bootstrap 95% CI</text><line x1="84" y1="842" x2="570" y2="842" stroke="#9ca3af" stroke-width="1"/><rect x="122" y="842" width="70" height="5.104102989017804e-29" rx="12" fill="#0f766e"/><line x1="157" y1="842" x2="157" y2="842" stroke="#111827" stroke-width="2"/><line x1="147" y1="842" x2="167" y2="842" stroke="#111827" stroke-width="2"/><line x1="147" y1="842" x2="167" y2="842" stroke="#111827" stroke-width="2"/><text x="157" y="830" text-anchor="middle" font-family="ui-monospace, SFMono-Regular, monospace" font-size="11" fill="#374151">0.000</text><text x="157" y="866" text-anchor="middle" font-family="ui-monospace, SFMono-Regular, monospace" font-size="12" fill="#111827">linear</text><text x="157" y="884" text-anchor="middle" font-family="ui-monospace, SFMono-Regular, monospace" font-size="11" fill="#6b7280">cancel 0.000</text><rect x="272" y="701.8195033637064" width="70" height="140.18049663629358" rx="12" fill="#c2410c"/><line x1="307" y1="697.3447456875939" x2="307" y2="705.8757055694866" stroke="#111827" stroke-width="2"/><line x1="297" y1="697.3447456875939" x2="317" y2="697.3447456875939" stroke="#111827" stroke-width="2"/><line x1="297" y1="705.8757055694866" x2="317" y2="705.8757055694866" stroke="#111827" stroke-width="2"/><text x="307" y="685.3447456875939" text-anchor="middle" font-family="ui-monospace, SFMono-Regular, monospace" font-size="11" fill="#374151">0.408</text><text x="307" y="866" text-anchor="middle" font-family="ui-monospace, SFMono-Regular, monospace" font-size="12" fill="#111827">winner-take-all</text><text x="307" y="884" text-anchor="middle" font-family="ui-monospace, SFMono-Regular, monospace" font-size="11" fill="#6b7280">cancel 0.834</text><rect x="422" y="589.4451583618668" width="70" height="252.55484163813324" rx="12" fill="#991b1b"/><line x1="457" y1="588" x2="457" y2="590.727306828988" stroke="#111827" stroke-width="2"/><line x1="447" y1="588" x2="467" y2="588" stroke="#111827" stroke-width="2"/><line x1="447" y1="590.727306828988" x2="467" y2="590.727306828988" stroke="#111827" stroke-width="2"/><text x="457" y="576" text-anchor="middle" font-family="ui-monospace, SFMono-Regular, monospace" font-size="11" fill="#374151">0.735</text><text x="457" y="866" text-anchor="middle" font-family="ui-monospace, SFMono-Regular, monospace" font-size="12" fill="#111827">early-stop</text><text x="457" y="884" text-anchor="middle" font-family="ui-monospace, SFMono-Regular, monospace" font-size="11" fill="#6b7280">cancel 0.764</text><rect x="640" y="510" width="560" height="390" rx="20" fill="#fffaf0" stroke="#d6d3d1"/><text x="664" y="546" font-family="Georgia, serif" font-size="22" fill="#111827">Seeded Gnosis Mini-MoE Routing Benchmark</text><text x="664" y="570" font-family="Georgia, serif" font-size="13" fill="#57534e">Same 16-param routed-expert topology; two paths contribute</text><text x="664" y="596" font-family="ui-monospace, SFMono-Regular, monospace" font-size="12" fill="#374151">Eval MSE with seed bootstrap 95% CI</text><line x1="684" y1="842" x2="1170" y2="842" stroke="#9ca3af" stroke-width="1"/><rect x="722" y="841.3944425632615" width="70" height="0.6055574367385826" rx="12" fill="#0f766e"/><line x1="757" y1="841.355925372558" x2="757" y2="841.4363744013624" stroke="#111827" stroke-width="2"/><line x1="747" y1="841.355925372558" x2="767" y2="841.355925372558" stroke="#111827" stroke-width="2"/><line x1="747" y1="841.4363744013624" x2="767" y2="841.4363744013624" stroke="#111827" stroke-width="2"/><text x="757" y="829.355925372558" text-anchor="middle" font-family="ui-monospace, SFMono-Regular, monospace" font-size="11" fill="#374151">0.001</text><text x="757" y="866" text-anchor="middle" font-family="ui-monospace, SFMono-Regular, monospace" font-size="12" fill="#111827">linear</text><text x="757" y="884" text-anchor="middle" font-family="ui-monospace, SFMono-Regular, monospace" font-size="11" fill="#6b7280">dual 0.027</text><rect x="872" y="659.3473471013058" width="70" height="182.65265289869427" rx="12" fill="#c2410c"/><line x1="907" y1="625.7628593211782" x2="907" y2="693.4754748529216" stroke="#111827" stroke-width="2"/><line x1="897" y1="625.7628593211782" x2="917" y2="625.7628593211782" stroke="#111827" stroke-width="2"/><line x1="897" y1="693.4754748529216" x2="917" y2="693.4754748529216" stroke="#111827" stroke-width="2"/><text x="907" y="613.7628593211782" text-anchor="middle" font-family="ui-monospace, SFMono-Regular, monospace" font-size="11" fill="#374151">0.328</text><text x="907" y="866" text-anchor="middle" font-family="ui-monospace, SFMono-Regular, monospace" font-size="12" fill="#111827">winner-take-all</text><text x="907" y="884" text-anchor="middle" font-family="ui-monospace, SFMono-Regular, monospace" font-size="11" fill="#6b7280">dual 0.402</text><rect x="1022" y="591.9637405558797" width="70" height="250.03625944412036" rx="12" fill="#991b1b"/><line x1="1057" y1="588" x2="1057" y2="595.2050337311208" stroke="#111827" stroke-width="2"/><line x1="1047" y1="588" x2="1067" y2="588" stroke="#111827" stroke-width="2"/><line x1="1047" y1="595.2050337311208" x2="1067" y2="595.2050337311208" stroke="#111827" stroke-width="2"/><text x="1057" y="576" text-anchor="middle" font-family="ui-monospace, SFMono-Regular, monospace" font-size="11" fill="#374151">0.449</text><text x="1057" y="866" text-anchor="middle" font-family="ui-monospace, SFMono-Regular, monospace" font-size="12" fill="#111827">early-stop</text><text x="1057" y="884" text-anchor="middle" font-family="ui-monospace, SFMono-Regular, monospace" font-size="11" fill="#6b7280">dual 0.474</text></svg>
