<svg xmlns="http://www.w3.org/2000/svg" viewBox="0 0 1400 920" role="img" aria-labelledby="title desc"><title id="title">Chapter 17 Hetero MoA Fabric curvature figure</title><desc id="desc">Curved backend-diverse paired-kernel MoA fabric showing a meta-laminar envelope around CPU, GPU, NPU, and WASM lanes.</desc><rect width="1400" height="920" fill="#fffdf8"/><path d="M 130 430 C 170 170 430 44 700 44 C 970 44 1230 170 1270 430 C 1230 690 970 816 700 816 C 430 816 170 690 130 430 Z" fill="#fff7ed" stroke="#fdba74" stroke-width="3"/><path d="M 260 430 C 300 250 500 142 700 142 C 900 142 1100 250 1140 430 C 1100 610 900 718 700 718 C 500 718 300 610 260 430 Z" fill="#fffbeb" stroke="#f59e0b" stroke-width="2.5" stroke-dasharray="10 8"/><text x="700" y="72" text-anchor="middle" font-family="Georgia, Times New Roman, serif" font-size="28" font-weight="700" fill="#7c2d12">Curved HeteroMoAFabric</text><text x="700" y="104" text-anchor="middle" font-family="Georgia, Times New Roman, serif" font-size="16" font-weight="400" fill="#9a3412">fork/race/merge+vent across device layers</text><text x="700" y="134" text-anchor="middle" font-family="Georgia, Times New Roman, serif" font-size="16" font-weight="600" fill="#b45309">curved meta-laminar envelope</text><rect x="510" y="140" width="380" height="100" rx="22" ry="22" fill="#ffffff" stroke="#c2410c" stroke-width="2"/><text x="700" y="172" text-anchor="middle" font-family="Georgia, Times New Roman, serif" font-size="18" font-weight="600" fill="#7c2d12">Aeon 10-byte stream ingress</text><text x="700" y="196" text-anchor="middle" font-family="Georgia, Times New Roman, serif" font-size="18" font-weight="600" fill="#7c2d12">launch gate</text><text x="700" y="220" text-anchor="middle" font-family="Georgia, Times New Roman, serif" font-size="18" font-weight="600" fill="#7c2d12">cannon cursor</text><rect x="505" y="682" width="390" height="96" rx="22" ry="22" fill="#ffffff" stroke="#7c3aed" stroke-width="2"/><text x="700" y="714" text-anchor="middle" font-family="Georgia, Times New Roman, serif" font-size="18" font-weight="600" fill="#581c87">global race collapse</text><text x="700" y="738" text-anchor="middle" font-family="Georgia, Times New Roman, serif" font-size="18" font-weight="600" fill="#581c87">winner/loser/vent telemetry</text><path d="M 700 240 C 700 275 700 310 700 350" fill="none" stroke="#ea580c" stroke-width="3.2" stroke-linecap="round" stroke-linejoin="round"/><path d="M 700 486 C 700 580 700 625 700 700" fill="none" stroke="#7c3aed" stroke-width="3.2" stroke-linecap="round" stroke-linejoin="round"/><circle cx="700" cy="430" r="82" fill="#fff" stroke="#ea580c" stroke-width="2"/><text x="700" y="420" text-anchor="middle" font-family="Georgia, Times New Roman, serif" font-size="18" font-weight="700" fill="#9a3412">meta race across layers</text><text x="700" y="446" text-anchor="middle" font-family="Georgia, Times New Roman, serif" font-size="18" font-weight="700" fill="#9a3412">QDoc decay</text><path d="M 700 222 C 522.4647922241901 212.5 457.51288694035713 242 392.56098165652423 188.50000000000003" fill="none" stroke="#d97706" stroke-width="2.5" stroke-linecap="round" stroke-linejoin="round" opacity="0.58"/><path d="M 392.56098165652423 316.5 C 457.51288694035713 344 522.4647922241901 447.5 700 698" fill="none" stroke="#d97706" stroke-width="2.5" stroke-linecap="round" stroke-linejoin="round" opacity="0.58"/><path d="M 392.56098165652423 250.50000000000003 C 263.4156423830847 117.4056319458158 277.4156423830847 129.4056319458158 281.4156423830847 137.4056319458158" fill="none" stroke="#c2410c" stroke-width="1.8" stroke-linecap="round" stroke-linejoin="round" opacity="0.68"/><path d="M 392.56098165652423 250.50000000000003 C 325.11826255653267 80.33095739277545 339.11826255653267 92.33095739277545 343.11826255653267 100.33095739277545" fill="none" stroke="#c2410c" stroke-width="1.8" stroke-linecap="round" stroke-linejoin="round" opacity="0.68"/><rect x="232.56098165652423" y="180.50000000000003" width="320" height="144" rx="22" ry="22" fill="#fef3c7" stroke="#d97706" stroke-width="2"/><text x="392.56098165652423" y="220.50000000000003" text-anchor="middle" font-family="Georgia, Times New Roman, serif" font-size="19" font-weight="700" fill="#d97706">CPU control helix</text><text x="392.56098165652423" y="244.50000000000003" text-anchor="middle" font-family="Georgia, Times New Roman, serif" font-size="19" font-weight="700" fill="#d97706">2 mirrored lanes</text><text x="392.56098165652423" y="282.5" text-anchor="middle" font-family="Georgia, Times New Roman, serif" font-size="15" font-weight="400" fill="#334155">native threads</text><text x="392.56098165652423" y="302.5" text-anchor="middle" font-family="Georgia, Times New Roman, serif" font-size="15" font-weight="400" fill="#334155">command CUDA fallback</text><circle cx="281.4156423830847" cy="137.4056319458158" r="24" fill="#fff7ed" stroke="#c2410c" stroke-width="2"/><text x="281.4156423830847" y="141.4056319458158" text-anchor="middle" font-family="Georgia, Times New Roman, serif" font-size="15" font-weight="700" fill="#c2410c">P1</text><circle cx="343.11826255653267" cy="100.33095739277545" r="24" fill="#fff7ed" stroke="#c2410c" stroke-width="2"/><text x="343.11826255653267" y="104.33095739277545" text-anchor="middle" font-family="Georgia, Times New Roman, serif" font-size="15" font-weight="700" fill="#c2410c">P2</text><path d="M 700 222 C 877.5352077758099 212.5 942.4871130596429 242 1007.4390183434757 188.50000000000003" fill="none" stroke="#16a34a" stroke-width="2.5" stroke-linecap="round" stroke-linejoin="round" opacity="0.58"/><path d="M 1007.4390183434757 316.5 C 942.4871130596429 344 877.5352077758099 447.5 700 698" fill="none" stroke="#16a34a" stroke-width="2.5" stroke-linecap="round" stroke-linejoin="round" opacity="0.58"/><path d="M 1007.4390183434757 250.50000000000003 C 1100.910742165085 132.13040904617128 1114.910742165085 144.13040904617128 1118.910742165085 152.13040904617128" fill="none" stroke="#15803d" stroke-width="1.8" stroke-linecap="round" stroke-linejoin="round" opacity="0.68"/><rect x="847.4390183434757" y="180.50000000000003" width="320" height="144" rx="22" ry="22" fill="#dcfce7" stroke="#16a34a" stroke-width="2"/><text x="1007.4390183434757" y="220.50000000000003" text-anchor="middle" font-family="Georgia, Times New Roman, serif" font-size="19" font-weight="700" fill="#16a34a">GPU wave helix</text><text x="1007.4390183434757" y="244.50000000000003" text-anchor="middle" font-family="Georgia, Times New Roman, serif" font-size="19" font-weight="700" fill="#16a34a">1 mirrored lane</text><text x="1007.4390183434757" y="282.5" text-anchor="middle" font-family="Georgia, Times New Roman, serif" font-size="15" font-weight="400" fill="#334155">WebGPU</text><text x="1007.4390183434757" y="302.5" text-anchor="middle" font-family="Georgia, Times New Roman, serif" font-size="15" font-weight="400" fill="#334155">CUDA-style runner</text><circle cx="1118.910742165085" cy="152.13040904617128" r="24" fill="#ecfdf5" stroke="#15803d" stroke-width="2"/><text x="1118.910742165085" y="156.13040904617128" text-anchor="middle" font-family="Georgia, Times New Roman, serif" font-size="15" font-weight="700" fill="#15803d">P1</text><path d="M 700 222 C 877.5352077758099 417.5000000000001 942.4871130596428 522.0000000000001 1007.4390183434756 543.5000000000002" fill="none" stroke="#2563eb" stroke-width="2.5" stroke-linecap="round" stroke-linejoin="round" opacity="0.58"/><path d="M 1007.4390183434756 671.5000000000002 C 942.4871130596428 624.0000000000001 877.5352077758099 652.5000000000001 700 698" fill="none" stroke="#2563eb" stroke-width="2.5" stroke-linecap="round" stroke-linejoin="round" opacity="0.58"/><path d="M 1007.4390183434756 605.5000000000002 C 1132.0974957877486 633.8525491562424 1146.0974957877486 645.8525491562424 1150.0974957877486 653.8525491562424" fill="none" stroke="#1d4ed8" stroke-width="1.8" stroke-linecap="round" stroke-linejoin="round" opacity="0.68"/><rect x="847.4390183434756" y="535.5000000000002" width="320" height="144" rx="22" ry="22" fill="#dbeafe" stroke="#2563eb" stroke-width="2"/><text x="1007.4390183434756" y="575.5000000000002" text-anchor="middle" font-family="Georgia, Times New Roman, serif" font-size="19" font-weight="700" fill="#2563eb">NPU route helix</text><text x="1007.4390183434756" y="599.5000000000002" text-anchor="middle" font-family="Georgia, Times New Roman, serif" font-size="19" font-weight="700" fill="#2563eb">1 mirrored lane</text><text x="1007.4390183434756" y="637.5000000000002" text-anchor="middle" font-family="Georgia, Times New Roman, serif" font-size="15" font-weight="400" fill="#334155">WebNN</text><text x="1007.4390183434756" y="657.5000000000002" text-anchor="middle" font-family="Georgia, Times New Roman, serif" font-size="15" font-weight="400" fill="#334155">vendor NPU runner</text><circle cx="1150.0974957877486" cy="653.8525491562424" r="24" fill="#eff6ff" stroke="#1d4ed8" stroke-width="2"/><text x="1150.0974957877486" y="657.8525491562424" text-anchor="middle" font-family="Georgia, Times New Roman, serif" font-size="15" font-weight="700" fill="#1d4ed8">P1</text><path d="M 700 222 C 522.4647922241901 417.5 457.5128869403572 522 392.5609816565243 543.5" fill="none" stroke="#7c3aed" stroke-width="2.5" stroke-linecap="round" stroke-linejoin="round" opacity="0.58"/><path d="M 392.5609816565243 671.5 C 457.5128869403572 624 522.4647922241901 652.5 700 698" fill="none" stroke="#7c3aed" stroke-width="2.5" stroke-linecap="round" stroke-linejoin="round" opacity="0.58"/><path d="M 392.5609816565243 605.5 C 263.08925783491514 687.8695909538287 277.08925783491514 699.8695909538287 281.08925783491514 707.8695909538287" fill="none" stroke="#6d28d9" stroke-width="1.8" stroke-linecap="round" stroke-linejoin="round" opacity="0.68"/><rect x="232.5609816565243" y="535.5" width="320" height="144" rx="22" ry="22" fill="#ede9fe" stroke="#7c3aed" stroke-width="2"/><text x="392.5609816565243" y="575.5" text-anchor="middle" font-family="Georgia, Times New Roman, serif" font-size="19" font-weight="700" fill="#7c3aed">WASM browser helix</text><text x="392.5609816565243" y="599.5" text-anchor="middle" font-family="Georgia, Times New Roman, serif" font-size="19" font-weight="700" fill="#7c3aed">1 mirrored lane</text><text x="392.5609816565243" y="637.5" text-anchor="middle" font-family="Georgia, Times New Roman, serif" font-size="15" font-weight="400" fill="#334155">WASM</text><text x="392.5609816565243" y="657.5" text-anchor="middle" font-family="Georgia, Times New Roman, serif" font-size="15" font-weight="400" fill="#334155">browser worker</text><circle cx="281.08925783491514" cy="707.8695909538287" r="24" fill="#f5f3ff" stroke="#6d28d9" stroke-width="2"/><text x="281.08925783491514" y="711.8695909538287" text-anchor="middle" font-family="Georgia, Times New Roman, serif" font-size="15" font-weight="700" fill="#6d28d9">P1</text></svg>