<svg xmlns="http://www.w3.org/2000/svg" width="1240" height="1240" viewBox="0 0 1240 1240" role="img" aria-labelledby="title desc"><title id="title">Chapter 17 boundary expansion figure</title><desc id="desc">A near-control zoom chart, two regime-sweep line charts, and two adversarial-control grouped bar charts generated from the Chapter 17 artifacts.</desc><defs><linearGradient id="bg2" x1="0%" y1="0%" x2="100%" y2="100%"><stop offset="0%" stop-color="#f7f3e8"/><stop offset="100%" stop-color="#fffdf8"/></linearGradient></defs><rect width="1240" height="1240" fill="url(#bg2)" rx="24"/><text x="48" y="56" font-family="Georgia, serif" font-size="28" fill="#111827">Chapter 17 Boundary Expansion</text><text x="48" y="84" font-family="Georgia, serif" font-size="14" fill="#4b5563">Near-control zoom, regime sweeps, and adversarial controls generated from the Gnosis evidence artifacts</text><rect x="40" y="120" width="1160" height="240" rx="20" fill="#fffaf0" stroke="#d6d3d1"/><text x="64" y="154" font-family="Georgia, serif" font-size="24" fill="#111827">Near-Control Zoom</text><text x="64" y="178" font-family="Georgia, serif" font-size="13" fill="#57534e">Parity at the control end, then visible divergence as recombination demand rises</text><text x="64" y="342" font-family="ui-monospace, SFMono-Regular, monospace" font-size="12" fill="#6b7280">linear advantage (eval MSE) over the best nonlinear strategy</text><line x1="104" y1="308" x2="1168" y2="308" stroke="#9ca3af" stroke-width="1"/><line x1="104" y1="206" x2="104" y2="308" stroke="#9ca3af" stroke-width="1"/><polyline fill="none" stroke="#0f766e" stroke-width="3" points="104,308 157.2,306.64579354970647 210.4,302.58317419882593 263.6,295.8121419473583 316.8,286.33738180970664 370,277.03114626198015 423.2,265.5444155229637 476.4,252.51706212577145 529.6,239.04023543674325 636,206"/><circle cx="104" cy="308" r="4" fill="#0f766e"/><circle cx="157.2" cy="306.64579354970647" r="4" fill="#0f766e"/><circle cx="210.4" cy="302.58317419882593" r="4" fill="#0f766e"/><circle cx="263.6" cy="295.8121419473583" r="4" fill="#0f766e"/><circle cx="316.8" cy="286.33738180970664" r="4" fill="#0f766e"/><circle cx="370" cy="277.03114626198015" r="4" fill="#0f766e"/><circle cx="423.2" cy="265.5444155229637" r="4" fill="#0f766e"/><circle cx="476.4" cy="252.51706212577145" r="4" fill="#0f766e"/><circle cx="529.6" cy="239.04023543674325" r="4" fill="#0f766e"/><circle cx="636" cy="206" r="4" fill="#0f766e"/><circle cx="476.4" cy="252.51706212577145" r="8" fill="none" stroke="#0f766e" stroke-width="2"/><line x1="529.6" y1="206" x2="529.6" y2="308" stroke="#0f766e" stroke-width="1.5" stroke-dasharray="5 4" opacity="0.55"/><rect x="524.6" y="234.04023543674325" width="10" height="10" fill="#fffaf0" stroke="#0f766e" stroke-width="2"/><polyline fill="none" stroke="#b45309" stroke-width="3" points="104,307.95737581771164 210.4,307.0991365737932 316.8,304.4945340505187 423.2,300.1432197262624 529.6,294.04575924939337 636,286.20320977626 689.2,281.62786932538137 742.4,276.61664122545716 795.6,271.16961525678147 902,258.9683957573998"/><circle cx="104" cy="307.95737581771164" r="4" fill="#b45309"/><circle cx="210.4" cy="307.0991365737932" r="4" fill="#b45309"/><circle cx="316.8" cy="304.4945340505187" r="4" fill="#b45309"/><circle cx="423.2" cy="300.1432197262624" r="4" fill="#b45309"/><circle cx="529.6" cy="294.04575924939337" r="4" fill="#b45309"/><circle cx="636" cy="286.20320977626" r="4" fill="#b45309"/><circle cx="689.2" cy="281.62786932538137" r="4" fill="#b45309"/><circle cx="742.4" cy="276.61664122545716" r="4" fill="#b45309"/><circle cx="795.6" cy="271.16961525678147" r="4" fill="#b45309"/><circle cx="902" cy="258.9683957573998" r="4" fill="#b45309"/><circle cx="742.4" cy="276.61664122545716" r="8" fill="none" stroke="#b45309" stroke-width="2"/><line x1="795.6" y1="206" x2="795.6" y2="308" stroke="#b45309" stroke-width="1.5" stroke-dasharray="5 4" opacity="0.55"/><rect x="790.6" y="266.16961525678147" width="10" height="10" fill="#fffaf0" stroke="#b45309" stroke-width="2"/><text x="104" y="328" text-anchor="middle" font-family="ui-monospace, SFMono-Regular, monospace" font-size="11" fill="#6b7280">0.00</text><text x="370" y="328" text-anchor="middle" font-family="ui-monospace, SFMono-Regular, monospace" font-size="11" fill="#6b7280">0.25</text><text x="636" y="328" text-anchor="middle" font-family="ui-monospace, SFMono-Regular, monospace" font-size="11" fill="#6b7280">0.50</text><text x="902" y="328" text-anchor="middle" font-family="ui-monospace, SFMono-Regular, monospace" font-size="11" fill="#6b7280">0.75</text><text x="92" y="312" text-anchor="end" font-family="ui-monospace, SFMono-Regular, monospace" font-size="11" fill="#6b7280">0.000</text><text x="92" y="261" text-anchor="end" font-family="ui-monospace, SFMono-Regular, monospace" font-size="11" fill="#6b7280">0.069</text><text x="92" y="210" text-anchor="end" font-family="ui-monospace, SFMono-Regular, monospace" font-size="11" fill="#6b7280">0.139</text><rect x="904" y="136" width="256" height="52" rx="12" fill="#fffdf8" stroke="#d6d3d1" opacity="0.96"/><text x="918" y="158" font-family="ui-monospace, SFMono-Regular, monospace" font-size="13" fill="#0f766e">affine parity 0.35 → split 0.40</text><text x="918" y="176" font-family="ui-monospace, SFMono-Regular, monospace" font-size="13" fill="#b45309">routed parity 0.60 → split 0.65</text><rect x="40" y="400" width="560" height="300" rx="20" fill="#fffaf0" stroke="#d6d3d1"/><text x="64" y="434" font-family="Georgia, serif" font-size="22" fill="#111827">Affine Regime Sweep</text><text x="64" y="458" font-family="Georgia, serif" font-size="13" fill="#57534e">From one-path parity to full cancellation</text><text x="64" y="478" font-family="ui-monospace, SFMono-Regular, monospace" font-size="12" fill="#374151">Linear advantage in eval MSE</text><line x1="88" y1="656" x2="572" y2="656" stroke="#9ca3af" stroke-width="1"/><line x1="88" y1="490" x2="88" y2="656" stroke="#9ca3af" stroke-width="1"/><polyline fill="none" stroke="#0f766e" stroke-width="3" points="88,656 209,638.2227981893267 330,597.4484436515467 451,543.0130018513305 572,490"/><circle cx="88" cy="656" r="4.5" fill="#0f766e"/><text x="88" y="676" text-anchor="middle" font-family="ui-monospace, SFMono-Regular, monospace" font-size="11" fill="#6b7280">0.00</text><text x="88" y="646" text-anchor="middle" font-family="ui-monospace, SFMono-Regular, monospace" font-size="10" fill="#374151">-0.000</text><circle cx="209" cy="638.2227981893267" r="4.5" fill="#0f766e"/><text x="209" y="676" text-anchor="middle" font-family="ui-monospace, SFMono-Regular, monospace" font-size="11" fill="#6b7280">0.25</text><text x="209" y="628.2227981893267" text-anchor="middle" font-family="ui-monospace, SFMono-Regular, monospace" font-size="10" fill="#374151">0.042</text><circle cx="330" cy="597.4484436515467" r="4.5" fill="#0f766e"/><text x="330" y="676" text-anchor="middle" font-family="ui-monospace, SFMono-Regular, monospace" font-size="11" fill="#6b7280">0.50</text><text x="330" y="587.4484436515467" text-anchor="middle" font-family="ui-monospace, SFMono-Regular, monospace" font-size="10" fill="#374151">0.139</text><circle cx="451" cy="543.0130018513305" r="4.5" fill="#0f766e"/><text x="451" y="676" text-anchor="middle" font-family="ui-monospace, SFMono-Regular, monospace" font-size="11" fill="#6b7280">0.75</text><text x="451" y="533.0130018513305" text-anchor="middle" font-family="ui-monospace, SFMono-Regular, monospace" font-size="10" fill="#374151">0.267</text><circle cx="572" cy="490" r="4.5" fill="#0f766e"/><text x="572" y="676" text-anchor="middle" font-family="ui-monospace, SFMono-Regular, monospace" font-size="11" fill="#6b7280">1.00</text><text x="572" y="480" text-anchor="middle" font-family="ui-monospace, SFMono-Regular, monospace" font-size="10" fill="#374151">0.393</text><text x="64" y="684" font-family="ui-monospace, SFMono-Regular, monospace" font-size="12" fill="#6b7280">first separated: 0.50</text><rect x="640" y="400" width="560" height="300" rx="20" fill="#fffaf0" stroke="#d6d3d1"/><text x="664" y="434" font-family="Georgia, serif" font-size="22" fill="#111827">Routed Regime Sweep</text><text x="664" y="458" font-family="Georgia, serif" font-size="13" fill="#57534e">From one-expert parity to dual-activation demand</text><text x="664" y="478" font-family="ui-monospace, SFMono-Regular, monospace" font-size="12" fill="#374151">Linear advantage in eval MSE</text><line x1="688" y1="656" x2="1172" y2="656" stroke="#9ca3af" stroke-width="1"/><line x1="688" y1="490" x2="688" y2="656" stroke="#9ca3af" stroke-width="1"/><polyline fill="none" stroke="#0f766e" stroke-width="3" points="688,655.9137384514802 809,644.9445461975077 930,611.8883062028208 1051,556.77130208014 1172,490"/><circle cx="688" cy="655.9137384514802" r="4.5" fill="#0f766e"/><text x="688" y="676" text-anchor="middle" font-family="ui-monospace, SFMono-Regular, monospace" font-size="11" fill="#6b7280">0.00</text><text x="688" y="645.9137384514802" text-anchor="middle" font-family="ui-monospace, SFMono-Regular, monospace" font-size="10" fill="#374151">0.000</text><circle cx="809" cy="644.9445461975077" r="4.5" fill="#0f766e"/><text x="809" y="676" text-anchor="middle" font-family="ui-monospace, SFMono-Regular, monospace" font-size="11" fill="#6b7280">0.25</text><text x="809" y="634.9445461975077" text-anchor="middle" font-family="ui-monospace, SFMono-Regular, monospace" font-size="10" fill="#374151">0.007</text><circle cx="930" cy="611.8883062028208" r="4.5" fill="#0f766e"/><text x="930" y="676" text-anchor="middle" font-family="ui-monospace, SFMono-Regular, monospace" font-size="11" fill="#6b7280">0.50</text><text x="930" y="601.8883062028208" text-anchor="middle" font-family="ui-monospace, SFMono-Regular, monospace" font-size="10" fill="#374151">0.030</text><circle cx="1051" cy="556.77130208014" r="4.5" fill="#0f766e"/><text x="1051" y="676" text-anchor="middle" font-family="ui-monospace, SFMono-Regular, monospace" font-size="11" fill="#6b7280">0.75</text><text x="1051" y="546.77130208014" text-anchor="middle" font-family="ui-monospace, SFMono-Regular, monospace" font-size="10" fill="#374151">0.067</text><circle cx="1172" cy="490" r="4.5" fill="#0f766e"/><text x="1172" y="676" text-anchor="middle" font-family="ui-monospace, SFMono-Regular, monospace" font-size="11" fill="#6b7280">1.00</text><text x="1172" y="480" text-anchor="middle" font-family="ui-monospace, SFMono-Regular, monospace" font-size="10" fill="#374151">0.111</text><text x="664" y="684" font-family="ui-monospace, SFMono-Regular, monospace" font-size="12" fill="#6b7280">first separated: 0.75</text><rect x="40" y="740" width="560" height="420" rx="20" fill="#fffaf0" stroke="#d6d3d1"/><text x="64" y="774" font-family="Georgia, serif" font-size="22" fill="#111827">Adversarial Final Error</text><text x="64" y="798" font-family="Georgia, serif" font-size="13" fill="#57534e">Where sparse selection is the right final inductive bias</text><rect x="80" y="1057.5257082670598" width="34" height="54.474291732940124" rx="10" fill="#0f766e"/><text x="97" y="1049.5257082670598" text-anchor="middle" font-family="ui-monospace, SFMono-Regular, monospace" font-size="10" fill="#374151">0.271</text><rect x="122" y="1092.9610042687032" width="34" height="19.038995731296904" rx="10" fill="#c2410c"/><text x="139" y="1084.9610042687032" text-anchor="middle" font-family="ui-monospace, SFMono-Regular, monospace" font-size="10" fill="#374151">0.095</text><rect x="164" y="1014.565813401923" width="34" height="97.43418659807698" rx="10" fill="#991b1b"/><text x="181" y="1006.565813401923" text-anchor="middle" font-family="ui-monospace, SFMono-Regular, monospace" font-size="10" fill="#374151">0.484</text><text x="134" y="1132" text-anchor="middle" font-family="ui-monospace, SFMono-Regular, monospace" font-size="10" fill="#111827">winner-affine-maxabs</text><text x="134" y="1150" text-anchor="middle" font-family="ui-monospace, SFMono-Regular, monospace" font-size="10" fill="#6b7280">favored winner-take-all | winner winner-take-all</text><rect x="236" y="1075.8907740513039" width="34" height="36.10922594869602" rx="10" fill="#0f766e"/><text x="253" y="1067.8907740513039" text-anchor="middle" font-family="ui-monospace, SFMono-Regular, monospace" font-size="10" fill="#374151">0.179</text><rect x="278" y="1045.7906955666954" width="34" height="66.2093044333046" rx="10" fill="#c2410c"/><text x="295" y="1037.7906955666954" text-anchor="middle" font-family="ui-monospace, SFMono-Regular, monospace" font-size="10" fill="#374151">0.329</text><rect x="320" y="1107.5309996228455" width="34" height="4.469000377154558" rx="10" fill="#991b1b"/><text x="337" y="1099.5309996228455" text-anchor="middle" font-family="ui-monospace, SFMono-Regular, monospace" font-size="10" fill="#374151">0.022</text><text x="290" y="1132" text-anchor="middle" font-family="ui-monospace, SFMono-Regular, monospace" font-size="10" fill="#111827">early-stop-routing-first-expert-short-budget</text><text x="290" y="1150" text-anchor="middle" font-family="ui-monospace, SFMono-Regular, monospace" font-size="10" fill="#6b7280">favored early-stop | winner early-stop</text><rect x="392" y="1062.6363517246673" width="34" height="49.363648275332636" rx="10" fill="#0f766e"/><text x="409" y="1054.6363517246673" text-anchor="middle" font-family="ui-monospace, SFMono-Regular, monospace" font-size="10" fill="#374151">0.245</text><rect x="434" y="842" width="34" height="270" rx="10" fill="#c2410c"/><text x="451" y="834" text-anchor="middle" font-family="ui-monospace, SFMono-Regular, monospace" font-size="10" fill="#374151">1.342</text><rect x="476" y="1111.9999997651141" width="34" height="2.348858032326399e-7" rx="10" fill="#991b1b"/><text x="493" y="1103.9999997651141" text-anchor="middle" font-family="ui-monospace, SFMono-Regular, monospace" font-size="10" fill="#374151">0.000</text><text x="446" y="1132" text-anchor="middle" font-family="ui-monospace, SFMono-Regular, monospace" font-size="10" fill="#111827">early-stop-left-priority-short-budget</text><text x="446" y="1150" text-anchor="middle" font-family="ui-monospace, SFMono-Regular, monospace" font-size="10" fill="#6b7280">favored early-stop | winner early-stop</text><rect x="640" y="740" width="560" height="420" rx="20" fill="#fffaf0" stroke="#d6d3d1"/><text x="664" y="774" font-family="Georgia, serif" font-size="22" fill="#111827">Adversarial Learning Area</text><text x="664" y="798" font-family="Georgia, serif" font-size="13" fill="#57534e">Where sparse selection or early stop wins on sample efficiency</text><rect x="680" y="1059.8982014869605" width="34" height="52.10179851303942" rx="10" fill="#0f766e"/><text x="697" y="1051.8982014869605" text-anchor="middle" font-family="ui-monospace, SFMono-Regular, monospace" font-size="10" fill="#374151">0.265</text><rect x="722" y="1092.9700473268838" width="34" height="19.029952673116124" rx="10" fill="#c2410c"/><text x="739" y="1084.9700473268838" text-anchor="middle" font-family="ui-monospace, SFMono-Regular, monospace" font-size="10" fill="#374151">0.097</text><rect x="764" y="1017.2814991073955" width="34" height="94.71850089260455" rx="10" fill="#991b1b"/><text x="781" y="1009.2814991073955" text-anchor="middle" font-family="ui-monospace, SFMono-Regular, monospace" font-size="10" fill="#374151">0.482</text><text x="734" y="1132" text-anchor="middle" font-family="ui-monospace, SFMono-Regular, monospace" font-size="10" fill="#111827">winner-affine-maxabs</text><text x="734" y="1150" text-anchor="middle" font-family="ui-monospace, SFMono-Regular, monospace" font-size="10" fill="#6b7280">favored winner-take-all | winner winner-take-all</text><rect x="836" y="1072.6382155229828" width="34" height="39.36178447701718" rx="10" fill="#0f766e"/><text x="853" y="1064.6382155229828" text-anchor="middle" font-family="ui-monospace, SFMono-Regular, monospace" font-size="10" fill="#374151">0.200</text><rect x="878" y="1044.7814233035417" width="34" height="67.21857669645827" rx="10" fill="#c2410c"/><text x="895" y="1036.7814233035417" text-anchor="middle" font-family="ui-monospace, SFMono-Regular, monospace" font-size="10" fill="#374151">0.342</text><rect x="920" y="1104.8422623569702" width="34" height="7.1577376430297095" rx="10" fill="#991b1b"/><text x="937" y="1096.8422623569702" text-anchor="middle" font-family="ui-monospace, SFMono-Regular, monospace" font-size="10" fill="#374151">0.036</text><text x="890" y="1132" text-anchor="middle" font-family="ui-monospace, SFMono-Regular, monospace" font-size="10" fill="#111827">early-stop-routing-first-expert-short-budget</text><text x="890" y="1150" text-anchor="middle" font-family="ui-monospace, SFMono-Regular, monospace" font-size="10" fill="#6b7280">favored early-stop | winner early-stop</text><rect x="992" y="1007.8254650988089" width="34" height="104.17453490119111" rx="10" fill="#0f766e"/><text x="1009" y="999.8254650988089" text-anchor="middle" font-family="ui-monospace, SFMono-Regular, monospace" font-size="10" fill="#374151">0.531</text><rect x="1034" y="842" width="34" height="270" rx="10" fill="#c2410c"/><text x="1051" y="834" text-anchor="middle" font-family="ui-monospace, SFMono-Regular, monospace" font-size="10" fill="#374151">1.375</text><rect x="1076" y="1110.884023398552" width="34" height="1.115976601447972" rx="10" fill="#991b1b"/><text x="1093" y="1102.884023398552" text-anchor="middle" font-family="ui-monospace, SFMono-Regular, monospace" font-size="10" fill="#374151">0.006</text><text x="1046" y="1132" text-anchor="middle" font-family="ui-monospace, SFMono-Regular, monospace" font-size="10" fill="#111827">early-stop-left-priority-short-budget</text><text x="1046" y="1150" text-anchor="middle" font-family="ui-monospace, SFMono-Regular, monospace" font-size="10" fill="#6b7280">favored early-stop | winner early-stop</text></svg>
