<svg xmlns="http://www.w3.org/2000/svg" viewBox="0 0 1240 1294" role="img" aria-label="void-walking-atlas-v1-real-data">
<rect x="0" y="0" width="1240" height="1294" fill="#0f172a" rx="8" />
<text x="620" y="52" text-anchor="middle" font-size="22" font-weight="bold" fill="#e2e8f0" font-family="system-ui, sans-serif">The Shape of What Was Rejected</text>
<text x="620" y="76" text-anchor="middle" font-size="13" fill="#94a3b8" font-family="system-ui, sans-serif">A Void Walking Atlas</text>
<text x="40" y="100" font-size="10" font-weight="600" letter-spacing="2" fill="#475569" font-family="system-ui, sans-serif">ACT I  —  THE SIGNAL</text>
<text x="40" y="394" font-size="10" font-weight="600" letter-spacing="2" fill="#475569" font-family="system-ui, sans-serif">ACT II  —  THE DYNAMICS</text>
<text x="40" y="922" font-size="10" font-weight="600" letter-spacing="2" fill="#475569" font-family="system-ui, sans-serif">ACT III  —  THE MEANING</text>
<rect x="40" y="132" width="382.6666666666667" height="240" rx="6" fill="#1e293b" stroke="#334155" stroke-width="1" />
<text x="52" y="152" font-size="11" font-weight="600" fill="#38bdf8" font-family="system-ui, sans-serif">Complement Distribution</text>
<rect x="66.3" y="166.0" width="28.7" height="180.0" rx="2" fill="#3f86c8" fill-opacity="0.8" />
<text x="80.7" y="163.0" text-anchor="middle" font-size="6.5" fill="#e2e8f0" font-family="system-ui, sans-serif">0.559</text>
<text x="80.7" y="360.0" text-anchor="middle" font-size="6" fill="#94a3b8" font-family="system-ui, sans-serif">arm-0 (co…</text>
<rect x="109.4" y="294.4" width="28.7" height="51.6" rx="2" fill="#3f86c8" fill-opacity="0.8" />
<text x="123.7" y="291.4" text-anchor="middle" font-size="6.5" fill="#e2e8f0" font-family="system-ui, sans-serif">0.160</text>
<text x="123.7" y="360.0" text-anchor="middle" font-size="6" fill="#94a3b8" font-family="system-ui, sans-serif">arm-1 (co…</text>
<rect x="152.4" y="314.7" width="28.7" height="31.3" rx="2" fill="#3f86c8" fill-opacity="0.8" />
<text x="166.8" y="311.7" text-anchor="middle" font-size="6.5" fill="#e2e8f0" font-family="system-ui, sans-serif">0.097</text>
<text x="166.8" y="360.0" text-anchor="middle" font-size="6" fill="#94a3b8" font-family="system-ui, sans-serif">arm-2 (co…</text>
<rect x="195.5" y="332.4" width="28.7" height="13.6" rx="2" fill="#3f86c8" fill-opacity="0.8" />
<text x="209.8" y="329.4" text-anchor="middle" font-size="6.5" fill="#e2e8f0" font-family="system-ui, sans-serif">0.042</text>
<text x="209.8" y="360.0" text-anchor="middle" font-size="6" fill="#94a3b8" font-family="system-ui, sans-serif">arm-3 (co…</text>
<rect x="238.5" y="332.4" width="28.7" height="13.6" rx="2" fill="#3f86c8" fill-opacity="0.8" />
<text x="252.9" y="329.4" text-anchor="middle" font-size="6.5" fill="#e2e8f0" font-family="system-ui, sans-serif">0.042</text>
<text x="252.9" y="360.0" text-anchor="middle" font-size="6" fill="#94a3b8" font-family="system-ui, sans-serif">arm-4 (co…</text>
<rect x="281.5" y="334.5" width="28.7" height="11.5" rx="2" fill="#3f86c8" fill-opacity="0.8" />
<text x="295.9" y="331.5" text-anchor="middle" font-size="6.5" fill="#e2e8f0" font-family="system-ui, sans-serif">0.036</text>
<text x="295.9" y="360.0" text-anchor="middle" font-size="6" fill="#94a3b8" font-family="system-ui, sans-serif">arm-5 (co…</text>
<rect x="324.6" y="334.5" width="28.7" height="11.5" rx="2" fill="#3f86c8" fill-opacity="0.8" />
<text x="338.9" y="331.5" text-anchor="middle" font-size="6.5" fill="#e2e8f0" font-family="system-ui, sans-serif">0.036</text>
<text x="338.9" y="360.0" text-anchor="middle" font-size="6" fill="#94a3b8" font-family="system-ui, sans-serif">arm-6 (co…</text>
<rect x="367.6" y="337.0" width="28.7" height="9.0" rx="2" fill="#3f86c8" fill-opacity="0.8" />
<text x="382.0" y="334.0" text-anchor="middle" font-size="6.5" fill="#e2e8f0" font-family="system-ui, sans-serif">0.028</text>
<text x="382.0" y="360.0" text-anchor="middle" font-size="6" fill="#94a3b8" font-family="system-ui, sans-serif">arm-7 (co…</text>
<rect x="434.6666666666667" y="132" width="765.3333333333334" height="240" rx="6" fill="#1e293b" stroke="#334155" stroke-width="1" />
<text x="446.6666666666667" y="152" font-size="11" font-weight="600" fill="#38bdf8" font-family="system-ui, sans-serif">Kurtosis Trajectory</text>
<line x1="446.6666666666667" y1="360.0" x2="1188.0" y2="360.0" stroke="#334155" stroke-width="0.4" stroke-dasharray="3,3" />
<text x="442.7" y="363.0" text-anchor="end" font-size="7" fill="#94a3b8" font-family="system-ui, sans-serif">0.000</text>
<line x1="446.6666666666667" y1="263.0" x2="1188.0" y2="263.0" stroke="#334155" stroke-width="0.4" stroke-dasharray="3,3" />
<text x="442.7" y="266.0" text-anchor="end" font-size="7" fill="#94a3b8" font-family="system-ui, sans-serif">1.51</text>
<line x1="446.6666666666667" y1="166.0" x2="1188.0" y2="166.0" stroke="#334155" stroke-width="0.4" stroke-dasharray="3,3" />
<text x="442.7" y="169.0" text-anchor="end" font-size="7" fill="#94a3b8" font-family="system-ui, sans-serif">3.03</text>
<path d="M446.7 360.0 L483.7 166.0 L520.8 186.6 L557.9 221.9 L594.9 208.1 L632.0 191.5 L669.1 208.7 L706.1 207.9 L743.2 231.0 L780.3 292.6 L817.3 205.8 L854.4 253.7 L891.5 249.8 L928.5 175.6 L965.6 176.1 L1002.7 188.5 L1039.7 208.5 L1076.8 213.6 L1113.9 213.6 L1150.9 214.4 L1188.0 203.8" fill="none" stroke="#38bdf8" stroke-width="1.6" stroke-linecap="round" stroke-linejoin="round" stroke-opacity="0.85" />
<text x="1191.0" y="206.8" font-size="7" fill="#38bdf8" font-family="system-ui, sans-serif">2.44</text>
<line x1="1170.0" y1="173.0" x2="1180.0" y2="173.0" stroke="#38bdf8" stroke-width="1.5" />
<text x="1168.0" y="176.0" text-anchor="end" font-size="6.5" fill="#94a3b8" font-family="system-ui, sans-serif">Excess Kurtosis</text>
<path d="M446.7 226.8 L483.7 266.6 L520.8 273.2 L557.9 260.8 L594.9 252.7 L632.0 255.4 L669.1 262.5 L706.1 256.5 L743.2 264.2 L780.3 262.8 L817.3 263.6 L854.4 264.5 L891.5 264.4 L928.5 264.3 L965.6 266.1 L1002.7 259.1 L1039.7 263.0 L1076.8 264.9 L1113.9 269.3 L1150.9 268.7 L1188.0 267.1" fill="none" stroke="#14b8a6" stroke-width="1.6" stroke-linecap="round" stroke-linejoin="round" stroke-opacity="0.85" />
<text x="1191.0" y="270.1" font-size="7" fill="#14b8a6" font-family="system-ui, sans-serif">1.45</text>
<line x1="1170.0" y1="183.0" x2="1180.0" y2="183.0" stroke="#14b8a6" stroke-width="1.5" />
<text x="1168.0" y="186.0" text-anchor="end" font-size="6.5" fill="#94a3b8" font-family="system-ui, sans-serif">Entropy</text>
<rect x="40" y="426" width="370.6666666666667" height="240" rx="6" fill="#1e293b" stroke="#334155" stroke-width="1" />
<text x="52" y="446" font-size="11" font-weight="600" fill="#38bdf8" font-family="system-ui, sans-serif">Nash Convergence</text>
<line x1="52" y1="654.0" x2="398.7" y2="654.0" stroke="#334155" stroke-width="0.4" stroke-dasharray="3,3" />
<text x="48.0" y="657.0" text-anchor="end" font-size="7" fill="#94a3b8" font-family="system-ui, sans-serif">0.000</text>
<line x1="52" y1="557.0" x2="398.7" y2="557.0" stroke="#334155" stroke-width="0.4" stroke-dasharray="3,3" />
<text x="48.0" y="560.0" text-anchor="end" font-size="7" fill="#94a3b8" font-family="system-ui, sans-serif">1.00</text>
<line x1="52" y1="460.0" x2="398.7" y2="460.0" stroke="#334155" stroke-width="0.4" stroke-dasharray="3,3" />
<text x="48.0" y="463.0" text-anchor="end" font-size="7" fill="#94a3b8" font-family="system-ui, sans-serif">2.00</text>
<path d="M52.0 460.0 L70.2 627.1 L88.5 631.8 L106.7 634.7 L125.0 636.1 L143.2 636.6 L161.5 637.9 L179.7 638.8 L198.0 639.5 L216.2 639.1 L234.5 639.3 L252.7 640.1 L270.9 640.9 L289.2 641.2 L307.4 642.0 L325.7 642.6 L343.9 643.0 L362.2 643.3 L380.4 643.4 L398.7 643.9" fill="none" stroke="#38bdf8" stroke-width="1.6" stroke-linecap="round" stroke-linejoin="round" stroke-opacity="0.85" />
<text x="401.7" y="646.9" font-size="7" fill="#38bdf8" font-family="system-ui, sans-serif">0.104</text>
<line x1="380.7" y1="467.0" x2="390.7" y2="467.0" stroke="#38bdf8" stroke-width="1.5" />
<text x="378.7" y="470.0" text-anchor="end" font-size="6.5" fill="#94a3b8" font-family="system-ui, sans-serif">Prisoner&apos;s Dilemma</text>
<path d="M52.0 524.7 L70.2 616.2 L88.5 611.5 L106.7 608.7 L125.0 607.2 L143.2 606.8 L161.5 605.5 L179.7 604.6 L198.0 603.9 L216.2 604.2 L234.5 604.1 L252.7 603.3 L270.9 602.4 L289.2 602.2 L307.4 601.4 L325.7 600.7 L343.9 600.4 L362.2 600.1 L380.4 599.9 L398.7 599.4" fill="none" stroke="#14b8a6" stroke-width="1.6" stroke-linecap="round" stroke-linejoin="round" stroke-opacity="0.85" />
<text x="401.7" y="602.4" font-size="7" fill="#14b8a6" font-family="system-ui, sans-serif">0.563</text>
<line x1="380.7" y1="477.0" x2="390.7" y2="477.0" stroke="#14b8a6" stroke-width="1.5" />
<text x="378.7" y="480.0" text-anchor="end" font-size="6.5" fill="#94a3b8" font-family="system-ui, sans-serif">Hawk-Dove</text>
<path d="M52.0 524.7 L70.2 645.0 L88.5 642.4 L106.7 647.1 L125.0 649.5 L143.2 651.7 L161.5 651.0 L179.7 648.9 L198.0 651.1 L216.2 650.7 L234.5 648.7 L252.7 649.2 L270.9 649.4 L289.2 648.8 L307.4 648.5 L325.7 648.3 L343.9 648.1 L362.2 647.3 L380.4 646.9 L398.7 647.7" fill="none" stroke="#f59e0b" stroke-width="1.6" stroke-linecap="round" stroke-linejoin="round" stroke-opacity="0.85" />
<text x="401.7" y="650.7" font-size="7" fill="#f59e0b" font-family="system-ui, sans-serif">0.065</text>
<line x1="380.7" y1="487.0" x2="390.7" y2="487.0" stroke="#f59e0b" stroke-width="1.5" />
<text x="378.7" y="490.0" text-anchor="end" font-size="6.5" fill="#94a3b8" font-family="system-ui, sans-serif">Rock-Paper-Scisso…</text>
<path d="M52.0 557.0 L70.2 583.9 L88.5 579.2 L106.7 576.3 L125.0 574.9 L143.2 574.4 L161.5 573.1 L179.7 572.2 L198.0 571.5 L216.2 571.9 L234.5 571.7 L252.7 570.9 L270.9 570.1 L289.2 569.8 L307.4 569.0 L325.7 568.4 L343.9 568.0 L362.2 567.7 L380.4 567.6 L398.7 567.1" fill="none" stroke="#ef4444" stroke-width="1.6" stroke-linecap="round" stroke-linejoin="round" stroke-opacity="0.85" />
<text x="401.7" y="570.1" font-size="7" fill="#ef4444" font-family="system-ui, sans-serif">0.896</text>
<line x1="380.7" y1="497.0" x2="390.7" y2="497.0" stroke="#ef4444" stroke-width="1.5" />
<text x="378.7" y="500.0" text-anchor="end" font-size="6.5" fill="#94a3b8" font-family="system-ui, sans-serif">Stag Hunt</text>
<path d="M52.0 557.0 L70.2 653.0 L88.5 650.6 L106.7 653.0 L125.0 652.8 L143.2 651.9 L161.5 653.2 L179.7 653.6 L198.0 652.7 L216.2 652.4 L234.5 653.1 L252.7 653.7 L270.9 653.4 L289.2 653.0 L307.4 653.9 L325.7 653.7 L343.9 653.3 L362.2 652.6 L380.4 652.8 L398.7 653.3" fill="none" stroke="#8b5cf6" stroke-width="1.6" stroke-linecap="round" stroke-linejoin="round" stroke-opacity="0.85" />
<text x="401.7" y="656.3" font-size="7" fill="#8b5cf6" font-family="system-ui, sans-serif">0.007</text>
<line x1="380.7" y1="507.0" x2="390.7" y2="507.0" stroke="#8b5cf6" stroke-width="1.5" />
<text x="378.7" y="510.0" text-anchor="end" font-size="6.5" fill="#94a3b8" font-family="system-ui, sans-serif">Matching Pennies</text>
<rect x="434.6666666666667" y="426" width="370.6666666666667" height="240" rx="6" fill="#1e293b" stroke="#334155" stroke-width="1" />
<text x="446.6666666666667" y="446" font-size="11" font-weight="600" fill="#38bdf8" font-family="system-ui, sans-serif">Historic Negotiations</text>
<line x1="446.6666666666667" y1="654.0" x2="793.3" y2="654.0" stroke="#334155" stroke-width="0.4" stroke-dasharray="3,3" />
<text x="442.7" y="657.0" text-anchor="end" font-size="7" fill="#94a3b8" font-family="system-ui, sans-serif">-1.99</text>
<line x1="446.6666666666667" y1="557.0" x2="793.3" y2="557.0" stroke="#334155" stroke-width="0.4" stroke-dasharray="3,3" />
<text x="442.7" y="560.0" text-anchor="end" font-size="7" fill="#94a3b8" font-family="system-ui, sans-serif">9.02</text>
<line x1="446.6666666666667" y1="460.0" x2="793.3" y2="460.0" stroke="#334155" stroke-width="0.4" stroke-dasharray="3,3" />
<text x="442.7" y="463.0" text-anchor="end" font-size="7" fill="#94a3b8" font-family="system-ui, sans-serif">20.0</text>
<path d="M446.7 636.4 L456.9 460.0 L467.1 569.7 L477.3 605.9 L487.5 623.8 L497.6 634.2 L507.8 641.0 L518.0 645.6 L528.2 648.8 L538.4 651.1 L548.6 652.6 L558.8 653.5 L569.0 654.0 L579.2 653.6 L589.4 653.7 L599.6 653.5 L609.8 653.1 L620.0 652.3 L630.2 652.2 L640.4 650.8 L650.6 648.7 L660.8 648.7 L671.0 645.8 L681.2 641.6 L691.4 641.8 L701.6 642.5 L711.8 637.7 L722.0 630.7 L732.2 631.4 L742.4 631.9 L752.5 622.1 L762.7 606.7 L772.9 607.8 L783.1 585.0 L793.3 586.6" fill="none" stroke="#38bdf8" stroke-width="1.6" stroke-linecap="round" stroke-linejoin="round" stroke-opacity="0.85" />
<text x="796.3" y="589.6" font-size="7" fill="#38bdf8" font-family="system-ui, sans-serif">5.67</text>
<line x1="775.3" y1="467.0" x2="785.3" y2="467.0" stroke="#38bdf8" stroke-width="1.5" />
<text x="773.3" y="470.0" text-anchor="end" font-size="6.5" fill="#94a3b8" font-family="system-ui, sans-serif">Cuban Missile Cri…</text>
<path d="M446.7 608.1 L456.9 608.4 L467.1 608.7 L477.3 609.0 L487.5 609.3 L497.6 609.6 L507.8 610.0 L518.0 610.3 L528.2 610.7 L538.4 611.1 L548.6 611.5 L558.8 611.9 L569.0 612.3 L579.2 610.1 L589.4 610.3 L599.6 610.5 L609.8 610.6 L620.0 610.7 L630.2 610.9 L640.4 611.0 L650.6 611.1 L660.8 611.3 L671.0 611.4 L681.2 611.4 L691.4 611.6 L701.6 610.0 L711.8 609.9 L722.0 609.8 L732.2 609.9 L742.4 610.1 L752.5 609.9 L762.7 609.6 L772.9 609.8 L783.1 609.4 L793.3 609.5" fill="none" stroke="#14b8a6" stroke-width="1.6" stroke-linecap="round" stroke-linejoin="round" stroke-opacity="0.85" />
<text x="796.3" y="612.5" font-size="7" fill="#14b8a6" font-family="system-ui, sans-serif">3.06</text>
<line x1="775.3" y1="477.0" x2="785.3" y2="477.0" stroke="#14b8a6" stroke-width="1.5" />
<text x="773.3" y="480.0" text-anchor="end" font-size="6.5" fill="#94a3b8" font-family="system-ui, sans-serif">Cuban Missile Cri…</text>
<path d="M446.7 636.4 L464.9 653.3 L483.2 587.1 L501.4 645.7 L519.6 652.6 L537.9 626.3 L556.1 584.4 L574.4 613.5 L592.6 634.2 L610.9 610.3 L629.1 565.2 L647.4 584.4 L665.6 613.5 L683.9 613.3 L702.1 624.7 L720.4 635.8 L738.6 584.4 L756.8 522.6 L775.1 641.2 L793.3 587.2" fill="none" stroke="#f59e0b" stroke-width="1.6" stroke-linecap="round" stroke-linejoin="round" stroke-opacity="0.85" />
<text x="796.3" y="590.2" font-size="7" fill="#f59e0b" font-family="system-ui, sans-serif">5.60</text>
<line x1="775.3" y1="487.0" x2="785.3" y2="487.0" stroke="#f59e0b" stroke-width="1.5" />
<text x="773.3" y="490.0" text-anchor="end" font-size="6.5" fill="#94a3b8" font-family="system-ui, sans-serif">Galileo vs Church…</text>
<path d="M446.7 608.1 L464.9 610.4 L483.2 611.3 L501.4 610.9 L519.6 611.5 L537.9 611.2 L556.1 610.2 L574.4 612.0 L592.6 616.3 L610.9 610.2 L629.1 611.4 L647.4 610.2 L665.6 612.0 L683.9 609.7 L702.1 610.6 L720.4 611.6 L738.6 610.2 L756.8 610.3 L775.1 610.7 L793.3 609.6" fill="none" stroke="#ef4444" stroke-width="1.6" stroke-linecap="round" stroke-linejoin="round" stroke-opacity="0.85" />
<text x="796.3" y="612.6" font-size="7" fill="#ef4444" font-family="system-ui, sans-serif">3.05</text>
<line x1="775.3" y1="497.0" x2="785.3" y2="497.0" stroke="#ef4444" stroke-width="1.5" />
<text x="773.3" y="500.0" text-anchor="end" font-size="6.5" fill="#94a3b8" font-family="system-ui, sans-serif">Galileo vs Church…</text>
<path d="M446.7 636.4 L464.9 636.4 L483.2 636.4 L501.4 636.4 L519.6 636.4 L537.9 636.4 L556.1 636.4 L574.4 636.4 L592.6 636.4 L610.9 636.4 L629.1 636.4 L647.4 636.4 L665.6 636.4 L683.9 636.4 L702.1 636.4 L720.4 636.4 L738.6 636.4 L756.8 636.4 L775.1 636.4 L793.3 636.4" fill="none" stroke="#8b5cf6" stroke-width="1.6" stroke-linecap="round" stroke-linejoin="round" stroke-opacity="0.85" />
<text x="796.3" y="639.4" font-size="7" fill="#8b5cf6" font-family="system-ui, sans-serif">0.000</text>
<line x1="775.3" y1="507.0" x2="785.3" y2="507.0" stroke="#8b5cf6" stroke-width="1.5" />
<text x="773.3" y="510.0" text-anchor="end" font-size="6.5" fill="#94a3b8" font-family="system-ui, sans-serif">Beethoven vs Trad…</text>
<path d="M446.7 608.1 L464.9 608.1 L483.2 608.1 L501.4 608.1 L519.6 608.1 L537.9 608.1 L556.1 608.1 L574.4 608.1 L592.6 608.1 L610.9 608.1 L629.1 608.1 L647.4 608.1 L665.6 608.1 L683.9 608.1 L702.1 608.1 L720.4 608.1 L738.6 608.1 L756.8 608.1 L775.1 608.1 L793.3 608.1" fill="none" stroke="#38bdf8" stroke-width="1.6" stroke-linecap="round" stroke-linejoin="round" stroke-opacity="0.85" />
<text x="796.3" y="611.1" font-size="7" fill="#38bdf8" font-family="system-ui, sans-serif">3.22</text>
<line x1="775.3" y1="517.0" x2="785.3" y2="517.0" stroke="#38bdf8" stroke-width="1.5" />
<text x="773.3" y="520.0" text-anchor="end" font-size="6.5" fill="#94a3b8" font-family="system-ui, sans-serif">Beethoven vs Trad…</text>
<path d="M446.7 636.4 L459.0 569.7 L471.4 623.8 L483.8 641.0 L496.2 648.8 L508.6 652.6 L521.0 654.0 L533.3 653.5 L545.7 651.1 L558.1 650.8 L570.5 648.7 L582.9 645.8 L595.2 641.8 L607.6 626.7 L620.0 612.6 L632.4 587.1 L644.8 529.6 L657.1 532.7 L669.5 653.5 L681.9 654.0 L694.3 652.6 L706.7 648.8 L719.0 641.0 L731.4 623.8 L743.8 569.7 L756.2 477.6 L768.6 502.1 L781.0 517.4 L793.3 641.0" fill="none" stroke="#14b8a6" stroke-width="1.6" stroke-linecap="round" stroke-linejoin="round" stroke-opacity="0.85" />
<text x="796.3" y="644.0" font-size="7" fill="#14b8a6" font-family="system-ui, sans-serif">-0.518</text>
<path d="M446.7 608.1 L459.0 608.7 L471.4 609.3 L483.8 610.0 L496.2 610.7 L508.6 611.5 L521.0 612.3 L533.3 613.2 L545.7 614.2 L558.1 610.8 L570.5 611.1 L582.9 611.4 L595.2 611.6 L607.6 611.5 L620.0 611.5 L632.4 611.3 L644.8 610.7 L657.1 611.2 L669.5 611.9 L681.9 612.8 L694.3 613.7 L706.7 614.7 L719.0 615.8 L731.4 616.7 L743.8 616.7 L756.2 609.2 L768.6 609.6 L781.0 610.1 L793.3 610.0" fill="none" stroke="#f59e0b" stroke-width="1.6" stroke-linecap="round" stroke-linejoin="round" stroke-opacity="0.85" />
<text x="796.3" y="613.0" font-size="7" fill="#f59e0b" font-family="system-ui, sans-serif">3.01</text>
<rect x="829.3333333333334" y="426" width="370.6666666666667" height="240" rx="6" fill="#1e293b" stroke="#334155" stroke-width="1" />
<text x="841.3333333333334" y="446" font-size="11" font-weight="600" fill="#38bdf8" font-family="system-ui, sans-serif">Gait Transitions</text>
<rect x="855.2" y="580.0" width="97.1" height="60.0" rx="2" fill="#9ca3af" fill-opacity="0.8" />
<text x="903.7" y="577.0" text-anchor="middle" font-size="6.5" fill="#e2e8f0" font-family="system-ui, sans-serif">1.00</text>
<text x="903.7" y="654.0" text-anchor="middle" font-size="6" fill="#94a3b8" font-family="system-ui, sans-serif">R0-1</text>
<rect x="966.1" y="520.0" width="97.1" height="120.0" rx="2" fill="#4c91ca" fill-opacity="0.8" />
<text x="1014.7" y="517.0" text-anchor="middle" font-size="6.5" fill="#e2e8f0" font-family="system-ui, sans-serif">2.00</text>
<text x="1014.7" y="654.0" text-anchor="middle" font-size="6" fill="#94a3b8" font-family="system-ui, sans-serif">R1-164</text>
<rect x="1077.1" y="460.0" width="97.1" height="180.0" rx="2" fill="#14b8a6" fill-opacity="0.8" />
<text x="1125.6" y="457.0" text-anchor="middle" font-size="6.5" fill="#e2e8f0" font-family="system-ui, sans-serif">3.00</text>
<text x="1125.6" y="654.0" text-anchor="middle" font-size="6" fill="#94a3b8" font-family="system-ui, sans-serif">R164-4000</text>
<rect x="40" y="690" width="1160" height="180" rx="6" fill="#1e293b" stroke="#334155" stroke-width="1" />
<text x="52" y="710" font-size="11" font-weight="600" fill="#38bdf8" font-family="system-ui, sans-serif">BATNA/WATNA Void Density Surface</text>
<circle cx="52.0" cy="783.1" r="8.1" fill="#38bdf8" fill-opacity="0.60" />
<text x="52.0" y="786.1" text-anchor="middle" font-size="7" font-weight="600" fill="#e2e8f0" font-family="system-ui, sans-serif">13%</text>
<text x="52.0" y="858.0" text-anchor="middle" font-size="7" fill="#94a3b8" font-family="system-ui, sans-serif">price × timeline</text>
<circle cx="279.2" cy="724.0" r="12.0" fill="#38bdf8" fill-opacity="0.90" />
<text x="279.2" y="727.0" text-anchor="middle" font-size="7" font-weight="600" fill="#e2e8f0" font-family="system-ui, sans-serif">26%</text>
<text x="279.2" y="858.0" text-anchor="middle" font-size="7" fill="#94a3b8" font-family="system-ui, sans-serif">price × quality</text>
<circle cx="506.4" cy="780.2" r="8.3" fill="#38bdf8" fill-opacity="0.62" />
<text x="506.4" y="783.2" text-anchor="middle" font-size="7" font-weight="600" fill="#e2e8f0" font-family="system-ui, sans-serif">14%</text>
<text x="506.4" y="858.0" text-anchor="middle" font-size="7" fill="#94a3b8" font-family="system-ui, sans-serif">price × relatio…</text>
<circle cx="733.6" cy="796.9" r="7.1" fill="#38bdf8" fill-opacity="0.54" />
<text x="733.6" y="799.9" text-anchor="middle" font-size="7" font-weight="600" fill="#e2e8f0" font-family="system-ui, sans-serif">10%</text>
<text x="733.6" y="858.0" text-anchor="middle" font-size="7" fill="#94a3b8" font-family="system-ui, sans-serif">timeline × qual…</text>
<circle cx="960.8" cy="771.6" r="8.8" fill="#38bdf8" fill-opacity="0.66" />
<text x="960.8" y="774.6" text-anchor="middle" font-size="7" font-weight="600" fill="#e2e8f0" font-family="system-ui, sans-serif">16%</text>
<text x="960.8" y="858.0" text-anchor="middle" font-size="7" fill="#94a3b8" font-family="system-ui, sans-serif">timeline × rela…</text>
<circle cx="1188.0" cy="794.6" r="7.3" fill="#38bdf8" fill-opacity="0.55" />
<text x="1188.0" y="797.6" text-anchor="middle" font-size="7" font-weight="600" fill="#e2e8f0" font-family="system-ui, sans-serif">11%</text>
<text x="1188.0" y="858.0" text-anchor="middle" font-size="7" fill="#94a3b8" font-family="system-ui, sans-serif">quality × relat…</text>
<text x="48.0" y="784.0" text-anchor="end" font-size="7" fill="#94a3b8" font-family="system-ui, sans-serif" transform="rotate(-90 48.0 784.0)">void density</text>
<rect x="40" y="954" width="370.6666666666667" height="280" rx="6" fill="#1e293b" stroke="#334155" stroke-width="1" />
<text x="52" y="974" font-size="11" font-weight="600" fill="#38bdf8" font-family="system-ui, sans-serif">Thomas-Kilmann Profiles</text>
<path d="M225.3 1077.8 L251.2 1096.6 L241.4 1127.0 L209.3 1127.0 L199.4 1096.6 Z" fill="none" stroke="#334155" stroke-width="0.5" />
<path d="M225.3 1050.5 L277.2 1088.2 L257.4 1149.1 L193.3 1149.1 L173.5 1088.2 Z" fill="none" stroke="#334155" stroke-width="0.5" />
<path d="M225.3 1023.3 L303.1 1079.7 L273.4 1171.1 L177.3 1171.1 L147.6 1079.7 Z" fill="none" stroke="#334155" stroke-width="0.5" />
<path d="M225.3 996.0 L329.0 1071.3 L289.4 1193.2 L161.3 1193.2 L121.7 1071.3 Z" fill="none" stroke="#334155" stroke-width="0.5" />
<line x1="225.33333333333334" y1="1105" x2="225.3" y2="996.0" stroke="#334155" stroke-width="0.5" />
<text x="225.3" y="987.0" text-anchor="middle" font-size="7" fill="#94a3b8" font-family="system-ui, sans-serif">Competing</text>
<line x1="225.33333333333334" y1="1105" x2="329.0" y2="1071.3" stroke="#334155" stroke-width="0.5" />
<text x="340.4" y="1070.6" text-anchor="middle" font-size="7" fill="#94a3b8" font-family="system-ui, sans-serif">Collaborating</text>
<line x1="225.33333333333334" y1="1105" x2="289.4" y2="1193.2" stroke="#334155" stroke-width="0.5" />
<text x="296.5" y="1205.9" text-anchor="middle" font-size="7" fill="#94a3b8" font-family="system-ui, sans-serif">Compromising</text>
<line x1="225.33333333333334" y1="1105" x2="161.3" y2="1193.2" stroke="#334155" stroke-width="0.5" />
<text x="154.2" y="1205.9" text-anchor="middle" font-size="7" fill="#94a3b8" font-family="system-ui, sans-serif">Avoiding</text>
<line x1="225.33333333333334" y1="1105" x2="121.7" y2="1071.3" stroke="#334155" stroke-width="0.5" />
<text x="110.3" y="1070.6" text-anchor="middle" font-size="7" fill="#94a3b8" font-family="system-ui, sans-serif">Accommodating</text>
<path d="M225.3 1054.7 L229.9 1103.5 L239.3 1124.2 L165.8 1186.9 L218.6 1102.8 Z" fill="#38bdf8" fill-opacity="0.12" stroke="#38bdf8" stroke-width="1.4" />
<circle cx="225.3" cy="1054.7" r="2.5" fill="#38bdf8" />
<circle cx="229.9" cy="1103.5" r="2.5" fill="#38bdf8" />
<circle cx="239.3" cy="1124.2" r="2.5" fill="#38bdf8" />
<circle cx="165.8" cy="1186.9" r="2.5" fill="#38bdf8" />
<circle cx="218.6" cy="1102.8" r="2.5" fill="#38bdf8" />
<path d="M225.3 1055.3 L230.0 1103.5 L238.6 1123.3 L164.5 1188.8 L219.3 1103.0 Z" fill="#14b8a6" fill-opacity="0.12" stroke="#14b8a6" stroke-width="1.4" />
<circle cx="225.3" cy="1055.3" r="2.5" fill="#14b8a6" />
<circle cx="230.0" cy="1103.5" r="2.5" fill="#14b8a6" />
<circle cx="238.6" cy="1123.3" r="2.5" fill="#14b8a6" />
<circle cx="164.5" cy="1188.8" r="2.5" fill="#14b8a6" />
<circle cx="219.3" cy="1103.0" r="2.5" fill="#14b8a6" />
<path d="M225.3 1057.5 L230.7 1103.2 L242.2 1128.1 L168.5 1183.2 L217.1 1102.3 Z" fill="#f59e0b" fill-opacity="0.12" stroke="#f59e0b" stroke-width="1.4" />
<circle cx="225.3" cy="1057.5" r="2.5" fill="#f59e0b" />
<circle cx="230.7" cy="1103.2" r="2.5" fill="#f59e0b" />
<circle cx="242.2" cy="1128.1" r="2.5" fill="#f59e0b" />
<circle cx="168.5" cy="1183.2" r="2.5" fill="#f59e0b" />
<circle cx="217.1" cy="1102.3" r="2.5" fill="#f59e0b" />
<path d="M225.3 1057.0 L229.1 1103.8 L237.2 1121.3 L161.3 1193.2 L219.5 1103.1 Z" fill="#ef4444" fill-opacity="0.12" stroke="#ef4444" stroke-width="1.4" />
<circle cx="225.3" cy="1057.0" r="2.5" fill="#ef4444" />
<circle cx="229.1" cy="1103.8" r="2.5" fill="#ef4444" />
<circle cx="237.2" cy="1121.3" r="2.5" fill="#ef4444" />
<circle cx="161.3" cy="1193.2" r="2.5" fill="#ef4444" />
<circle cx="219.5" cy="1103.1" r="2.5" fill="#ef4444" />
<path d="M225.3 1055.1 L230.7 1103.3 L241.9 1127.8 L169.6 1181.7 L217.3 1102.4 Z" fill="#8b5cf6" fill-opacity="0.12" stroke="#8b5cf6" stroke-width="1.4" />
<circle cx="225.3" cy="1055.1" r="2.5" fill="#8b5cf6" />
<circle cx="230.7" cy="1103.3" r="2.5" fill="#8b5cf6" />
<circle cx="241.9" cy="1127.8" r="2.5" fill="#8b5cf6" />
<circle cx="169.6" cy="1181.7" r="2.5" fill="#8b5cf6" />
<circle cx="217.3" cy="1102.4" r="2.5" fill="#8b5cf6" />
<path d="M225.3 1056.2 L230.3 1103.4 L239.8 1124.9 L165.8 1187.0 L218.5 1102.8 Z" fill="#38bdf8" fill-opacity="0.12" stroke="#38bdf8" stroke-width="1.4" />
<circle cx="225.3" cy="1056.2" r="2.5" fill="#38bdf8" />
<circle cx="230.3" cy="1103.4" r="2.5" fill="#38bdf8" />
<circle cx="239.8" cy="1124.9" r="2.5" fill="#38bdf8" />
<circle cx="165.8" cy="1187.0" r="2.5" fill="#38bdf8" />
<circle cx="218.5" cy="1102.8" r="2.5" fill="#38bdf8" />
<rect x="52" y="1212.0" width="8" height="8" rx="1" fill="#38bdf8" fill-opacity="0.7" />
<text x="63.0" y="1218.0" font-size="7" fill="#94a3b8" font-family="system-ui, sans-serif">generous-tft</text>
<rect x="52" y="1201.0" width="8" height="8" rx="1" fill="#8b5cf6" fill-opacity="0.7" />
<text x="63.0" y="1207.0" font-size="7" fill="#94a3b8" font-family="system-ui, sans-serif">pavlov</text>
<rect x="52" y="1190.0" width="8" height="8" rx="1" fill="#ef4444" fill-opacity="0.7" />
<text x="63.0" y="1196.0" font-size="7" fill="#94a3b8" font-family="system-ui, sans-serif">always-defect</text>
<rect x="52" y="1179.0" width="8" height="8" rx="1" fill="#f59e0b" fill-opacity="0.7" />
<text x="63.0" y="1185.0" font-size="7" fill="#94a3b8" font-family="system-ui, sans-serif">always-cooperate</text>
<rect x="52" y="1168.0" width="8" height="8" rx="1" fill="#14b8a6" fill-opacity="0.7" />
<text x="63.0" y="1174.0" font-size="7" fill="#94a3b8" font-family="system-ui, sans-serif">tit-for-tat</text>
<rect x="52" y="1157.0" width="8" height="8" rx="1" fill="#38bdf8" fill-opacity="0.7" />
<text x="63.0" y="1163.0" font-size="7" fill="#94a3b8" font-family="system-ui, sans-serif">void-walker</text>
<rect x="434.6666666666667" y="954" width="370.6666666666667" height="280" rx="6" fill="#1e293b" stroke="#334155" stroke-width="1" />
<text x="446.6666666666667" y="974" font-size="11" font-weight="600" fill="#38bdf8" font-family="system-ui, sans-serif">Fold Ethics</text>
<text x="444.6666666666667" y="1014.4" text-anchor="end" font-size="8" fill="#94a3b8" font-family="system-ui, sans-serif">FORK</text>
<rect x="447.7" y="989.0" width="67.3" height="44.8" rx="3" fill="#14b8a6" fill-opacity="0.6" />
<text x="481.3" y="1014.4" text-anchor="middle" font-size="6.5" fill="#e2e8f0" font-family="system-ui, sans-serif">Generosity</text>
<rect x="517.0" y="989.0" width="67.3" height="44.8" rx="3" fill="#14b8a6" fill-opacity="0.6" />
<text x="550.7" y="1014.4" text-anchor="middle" font-size="6.5" fill="#e2e8f0" font-family="system-ui, sans-serif">Opportuni…</text>
<rect x="586.3" y="989.0" width="67.3" height="44.8" rx="3" fill="#14b8a6" fill-opacity="0.6" />
<text x="620.0" y="1014.4" text-anchor="middle" font-size="6.5" fill="#e2e8f0" font-family="system-ui, sans-serif">Forgivene…</text>
<rect x="655.7" y="989.0" width="67.3" height="44.8" rx="3" fill="#14b8a6" fill-opacity="0.6" />
<text x="689.3" y="1014.4" text-anchor="middle" font-size="6.5" fill="#e2e8f0" font-family="system-ui, sans-serif">Hope</text>
<rect x="725.0" y="989.0" width="67.3" height="44.8" rx="3" fill="#f59e0b" fill-opacity="0.6" />
<text x="758.7" y="1014.4" text-anchor="middle" font-size="6.5" fill="#e2e8f0" font-family="system-ui, sans-serif">Trust</text>
<text x="444.6666666666667" y="1061.2" text-anchor="end" font-size="8" fill="#94a3b8" font-family="system-ui, sans-serif">RACE</text>
<rect x="447.7" y="1035.8" width="67.3" height="44.8" rx="3" fill="#14b8a6" fill-opacity="0.6" />
<text x="481.3" y="1061.2" text-anchor="middle" font-size="6.5" fill="#e2e8f0" font-family="system-ui, sans-serif">Multi-rea…</text>
<rect x="517.0" y="1035.8" width="67.3" height="44.8" rx="3" fill="#f59e0b" fill-opacity="0.6" />
<text x="550.7" y="1061.2" text-anchor="middle" font-size="6.5" fill="#e2e8f0" font-family="system-ui, sans-serif">Listening</text>
<rect x="586.3" y="1035.8" width="67.3" height="44.8" rx="3" fill="#f59e0b" fill-opacity="0.6" />
<text x="620.0" y="1061.2" text-anchor="middle" font-size="6.5" fill="#e2e8f0" font-family="system-ui, sans-serif">Holding s…</text>
<rect x="655.7" y="1035.8" width="67.3" height="44.8" rx="3" fill="#f59e0b" fill-opacity="0.6" />
<text x="689.3" y="1061.2" text-anchor="middle" font-size="6.5" fill="#e2e8f0" font-family="system-ui, sans-serif">Curiosity</text>
<rect x="725.0" y="1035.8" width="67.3" height="44.8" rx="3" fill="#f59e0b" fill-opacity="0.6" />
<text x="758.7" y="1061.2" text-anchor="middle" font-size="6.5" fill="#e2e8f0" font-family="system-ui, sans-serif">Patience</text>
<text x="444.6666666666667" y="1108.0" text-anchor="end" font-size="8" fill="#94a3b8" font-family="system-ui, sans-serif">FOLD</text>
<rect x="447.7" y="1082.6" width="67.3" height="44.8" rx="3" fill="#f59e0b" fill-opacity="0.6" />
<text x="481.3" y="1108.0" text-anchor="middle" font-size="6.5" fill="#e2e8f0" font-family="system-ui, sans-serif">Judgment</text>
<rect x="517.0" y="1082.6" width="67.3" height="44.8" rx="3" fill="#f59e0b" fill-opacity="0.6" />
<text x="550.7" y="1108.0" text-anchor="middle" font-size="6.5" fill="#e2e8f0" font-family="system-ui, sans-serif">Decision</text>
<rect x="586.3" y="1082.6" width="67.3" height="44.8" rx="3" fill="#f59e0b" fill-opacity="0.6" />
<text x="620.0" y="1108.0" text-anchor="middle" font-size="6.5" fill="#e2e8f0" font-family="system-ui, sans-serif">Promise</text>
<rect x="655.7" y="1082.6" width="67.3" height="44.8" rx="3" fill="#f59e0b" fill-opacity="0.6" />
<text x="689.3" y="1108.0" text-anchor="middle" font-size="6.5" fill="#e2e8f0" font-family="system-ui, sans-serif">Sacrifice</text>
<rect x="725.0" y="1082.6" width="67.3" height="44.8" rx="3" fill="#f59e0b" fill-opacity="0.6" />
<text x="758.7" y="1108.0" text-anchor="middle" font-size="6.5" fill="#e2e8f0" font-family="system-ui, sans-serif">Courage</text>
<text x="444.6666666666667" y="1154.8" text-anchor="end" font-size="8" fill="#94a3b8" font-family="system-ui, sans-serif">VENT</text>
<rect x="447.7" y="1129.4" width="67.3" height="44.8" rx="3" fill="#2a6ea8" fill-opacity="0.6" />
<text x="481.3" y="1154.8" text-anchor="middle" font-size="6.5" fill="#e2e8f0" font-family="system-ui, sans-serif">Rejection</text>
<rect x="517.0" y="1129.4" width="67.3" height="44.8" rx="3" fill="#2a6ea8" fill-opacity="0.6" />
<text x="550.7" y="1154.8" text-anchor="middle" font-size="6.5" fill="#e2e8f0" font-family="system-ui, sans-serif">Tough love</text>
<rect x="586.3" y="1129.4" width="67.3" height="44.8" rx="3" fill="#2a6ea8" fill-opacity="0.6" />
<text x="620.0" y="1154.8" text-anchor="middle" font-size="6.5" fill="#e2e8f0" font-family="system-ui, sans-serif">Honesty</text>
<rect x="655.7" y="1129.4" width="67.3" height="44.8" rx="3" fill="#2a6ea8" fill-opacity="0.6" />
<text x="689.3" y="1154.8" text-anchor="middle" font-size="6.5" fill="#e2e8f0" font-family="system-ui, sans-serif">Boundaries</text>
<rect x="725.0" y="1129.4" width="67.3" height="44.8" rx="3" fill="#f59e0b" fill-opacity="0.6" />
<text x="758.7" y="1154.8" text-anchor="middle" font-size="6.5" fill="#e2e8f0" font-family="system-ui, sans-serif">Criticism</text>
<text x="444.6666666666667" y="1201.6" text-anchor="end" font-size="8" fill="#94a3b8" font-family="system-ui, sans-serif">TRACE</text>
<rect x="447.7" y="1176.2" width="67.3" height="44.8" rx="3" fill="#14b8a6" fill-opacity="0.6" />
<text x="481.3" y="1201.6" text-anchor="middle" font-size="6.5" fill="#e2e8f0" font-family="system-ui, sans-serif">Dialogue</text>
<rect x="517.0" y="1176.2" width="67.3" height="44.8" rx="3" fill="#14b8a6" fill-opacity="0.6" />
<text x="550.7" y="1201.6" text-anchor="middle" font-size="6.5" fill="#e2e8f0" font-family="system-ui, sans-serif">Relations…</text>
<rect x="586.3" y="1176.2" width="67.3" height="44.8" rx="3" fill="#14b8a6" fill-opacity="0.6" />
<text x="620.0" y="1201.6" text-anchor="middle" font-size="6.5" fill="#e2e8f0" font-family="system-ui, sans-serif">Growth</text>
<rect x="655.7" y="1176.2" width="67.3" height="44.8" rx="3" fill="#14b8a6" fill-opacity="0.6" />
<text x="689.3" y="1201.6" text-anchor="middle" font-size="6.5" fill="#e2e8f0" font-family="system-ui, sans-serif">Culture</text>
<rect x="725.0" y="1176.2" width="67.3" height="44.8" rx="3" fill="#f59e0b" fill-opacity="0.6" />
<text x="758.7" y="1201.6" text-anchor="middle" font-size="6.5" fill="#e2e8f0" font-family="system-ui, sans-serif">Redemption</text>
<rect x="829.3333333333334" y="954" width="370.6666666666667" height="280" rx="6" fill="#1e293b" stroke="#334155" stroke-width="1" />
<text x="841.3333333333334" y="974" font-size="11" font-weight="600" fill="#38bdf8" font-family="system-ui, sans-serif">Grand Unification</text>
<rect x="855.2" y="988.0" width="33.7" height="220.0" rx="2" fill="#14b8a6" fill-opacity="0.8" />
<text x="872.0" y="985.0" text-anchor="middle" font-size="6.5" fill="#e2e8f0" font-family="system-ui, sans-serif">5.00</text>
<text x="872.0" y="1222.0" text-anchor="middle" font-size="6" fill="#94a3b8" font-family="system-ui, sans-serif">Quarks</text>
<rect x="902.7" y="988.0" width="33.7" height="220.0" rx="2" fill="#14b8a6" fill-opacity="0.8" />
<text x="919.6" y="985.0" text-anchor="middle" font-size="6.5" fill="#e2e8f0" font-family="system-ui, sans-serif">5.00</text>
<text x="919.6" y="1222.0" text-anchor="middle" font-size="6" fill="#94a3b8" font-family="system-ui, sans-serif">Proteins</text>
<rect x="950.3" y="988.0" width="33.7" height="220.0" rx="2" fill="#14b8a6" fill-opacity="0.8" />
<text x="967.1" y="985.0" text-anchor="middle" font-size="6.5" fill="#e2e8f0" font-family="system-ui, sans-serif">5.00</text>
<text x="967.1" y="1222.0" text-anchor="middle" font-size="6" fill="#94a3b8" font-family="system-ui, sans-serif">Neurons</text>
<rect x="997.8" y="988.0" width="33.7" height="220.0" rx="2" fill="#14b8a6" fill-opacity="0.8" />
<text x="1014.7" y="985.0" text-anchor="middle" font-size="6.5" fill="#e2e8f0" font-family="system-ui, sans-serif">5.00</text>
<text x="1014.7" y="1222.0" text-anchor="middle" font-size="6" fill="#94a3b8" font-family="system-ui, sans-serif">Speech</text>
<rect x="1045.4" y="988.0" width="33.7" height="220.0" rx="2" fill="#14b8a6" fill-opacity="0.8" />
<text x="1062.2" y="985.0" text-anchor="middle" font-size="6.5" fill="#e2e8f0" font-family="system-ui, sans-serif">5.00</text>
<text x="1062.2" y="1222.0" text-anchor="middle" font-size="6" fill="#94a3b8" font-family="system-ui, sans-serif">Negotiati…</text>
<rect x="1092.9" y="988.0" width="33.7" height="220.0" rx="2" fill="#14b8a6" fill-opacity="0.8" />
<text x="1109.8" y="985.0" text-anchor="middle" font-size="6.5" fill="#e2e8f0" font-family="system-ui, sans-serif">5.00</text>
<text x="1109.8" y="1222.0" text-anchor="middle" font-size="6" fill="#94a3b8" font-family="system-ui, sans-serif">Psyche</text>
<rect x="1140.5" y="988.0" width="33.7" height="220.0" rx="2" fill="#14b8a6" fill-opacity="0.8" />
<text x="1157.3" y="985.0" text-anchor="middle" font-size="6.5" fill="#e2e8f0" font-family="system-ui, sans-serif">5.00</text>
<text x="1157.3" y="1222.0" text-anchor="middle" font-size="6" fill="#94a3b8" font-family="system-ui, sans-serif">Spacetime</text>
<text x="620" y="1262" text-anchor="middle" font-size="11" fill="#94a3b8" font-family="system-ui, sans-serif">1999 rounds  ·  peak kurtosis 3.03  ·  final entropy 1.450  ·  3 gaits  ·  5 games  ·  35/35 theorems verified</text>
<text x="620" y="1280" text-anchor="middle" font-size="10" fill="#475569" font-family="system-ui, sans-serif">What you rejected is more informative than what you chose.</text>
</svg>